<svg xmlns="http://www.w3.org/2000/svg"
	width="936" height="254" viewBox="0 0 9360 2540">
	<g id="l1g94wzu8KJgewfiGSBH3lO" fill="rgb(0,0,0)" style="transform: none;">
		<g style="transform: none;">
			<path id="p10bqybc1I"
				d="M400 2524 c-55 -15 -150 -69 -150 -85 0 -5 -9 -9 -20 -9 -16 0 -20 -7 -20 -34 0 -37 12 -46 61 -46 16 0 29 -4 29 -10 0 -14 61 -12 106 3 22 8 53 17 69 21 26 6 23 2 -20 -27 -59 -40 -103 -94 -116 -142 -6 -19 -17 -42 -27 -51 -14 -14 -18 -40 -20 -131 l-4 -113 44 -20 c56 -26 88 -25 173 4 88 30 224 60 232 52 4 -3 -3 -6 -15 -6 -18 0 -22 -6 -22 -33 0 -25 7 -39 30 -55 16 -12 32 -22 36 -22 3 0 15 -11 26 -25 11 -14 25 -25 31 -25 7 0 22 -16 35 -36 23 -35 23 -36 5 -56 -31 -34 -56 -38 -215 -26 -258 17 -377 -12 -501 -123 -46 -40 -68 -71 -103 -142 l-44 -91 0 -274 c0 -267 1 -275 26 -350 59 -177 146 -309 282 -428 104 -91 202 -153 319 -202 l88 -37 237 -3 c269 -3 264 -5 342 76 58 60 83 97 92 136 3 16 15 43 25 60 10 17 19 48 19 69 0 36 -1 37 -34 37 -26 0 -36 -5 -41 -19 -3 -11 -14 -23 -25 -26 -10 -3 -21 -18 -25 -33 -4 -19 -18 -34 -43 -47 -20 -11 -53 -31 -72 -46 -53 -40 -115 -69 -173 -80 -43 -7 -67 -6 -130 11 -256 65 -473 250 -582 496 -69 156 -108 379 -86 496 29 157 69 229 163 290 97 63 124 70 300 69 129 -1 158 1 158 13 0 7 13 16 29 19 16 3 49 20 74 37 49 33 67 68 67 134 0 79 -18 116 -91 189 -77 77 -82 73 56 42 33 -8 84 -19 113 -25 30 -7 56 -19 59 -26 3 -8 19 -14 39 -14 34 0 34 0 34 48 0 35 -6 56 -20 72 l-21 24 26 14 c15 7 33 11 41 8 19 -7 18 -36 -2 -36 -15 0 -16 -9 -10 -67 4 -38 11 -72 16 -77 15 -15 108 -19 139 -6 84 34 57 255 -42 350 l-41 40 34 0 c55 0 109 19 125 44 25 38 31 121 11 152 -25 37 -116 75 -195 82 -36 3 -69 10 -73 16 -5 8 -121 12 -380 13 -305 2 -383 0 -428 -13z m845 -183 c16 -6 11 -9 -23 -12 -28 -3 -47 0 -54 8 -8 10 -3 13 23 12 19 0 43 -4 54 -8z m-344 -28 c38 -11 99 -51 99 -65 0 -5 13 -26 29 -46 34 -44 76 -120 70 -126 -2 -2 -29 3 -59 12 -102 29 -360 18 -543 -24 l-29 -7 15 29 c22 41 73 91 126 122 25 14 52 32 59 39 7 7 20 13 28 13 8 0 14 10 14 25 0 19 7 27 33 34 36 11 104 8 158 -6z"></path>
			<path id="p18yHyivBn"
				d="M1534 2478 c4 -35 12 -67 17 -72 12 -13 12 -96 -1 -96 -5 0 -10 -16 -10 -35 l0 -35 83 0 c51 0 90 5 100 13 22 16 36 179 17 202 -11 13 8 15 169 15 l181 0 0 -30 c0 -16 5 -30 10 -30 6 0 10 -22 10 -50 0 -27 -4 -50 -10 -50 -5 0 -10 -16 -10 -35 l0 -35 70 0 70 0 0 35 c0 19 -4 35 -10 35 -5 0 -10 23 -10 50 0 28 5 50 10 50 6 0 10 14 10 30 l0 30 173 0 172 0 3 -102 c2 -56 8 -108 14 -115 6 -8 34 -13 73 -13 l63 0 7 94 c4 51 4 103 0 115 -6 21 -6 21 194 21 l201 0 0 -29 c0 -17 5 -33 10 -36 6 -3 10 -19 10 -36 0 -27 -3 -29 -35 -29 -33 0 -35 -2 -35 -32 0 -76 0 -75 118 -74 119 1 121 2 107 72 -5 30 -10 34 -35 34 -26 0 -30 3 -30 29 0 17 5 33 10 36 6 3 10 19 10 36 l0 29 190 0 190 0 0 -29 c0 -17 5 -33 10 -36 6 -3 10 -26 10 -51 0 -24 -4 -44 -10 -44 -5 0 -10 -16 -10 -35 l0 -35 89 0 c106 0 114 6 110 85 -2 41 2 61 14 76 9 10 17 30 17 44 l0 25 185 0 c183 0 185 0 166 -19 -41 -41 -39 -144 4 -187 21 -21 34 -24 95 -24 66 0 74 2 101 29 24 25 29 37 29 81 0 52 -19 104 -42 113 -7 3 191 6 440 6 l453 1 -20 -26 c-16 -21 -21 -41 -21 -89 0 -58 2 -65 31 -90 29 -24 38 -26 108 -23 l76 3 3 48 3 47 -35 0 c-19 0 -38 -4 -41 -10 -10 -15 -23 -12 -34 9 -14 25 11 62 30 44 7 -7 28 -13 46 -13 33 0 33 0 33 50 l0 50 190 0 190 0 -10 -26 c-6 -14 -10 -50 -10 -80 0 -30 -4 -54 -10 -54 -5 0 -10 -16 -10 -35 l0 -35 125 0 125 0 0 34 c0 20 -6 36 -14 39 -10 4 -15 28 -18 81 l-3 76 188 0 187 0 0 -29 c0 -17 5 -33 10 -36 6 -3 10 -26 10 -51 0 -24 -4 -44 -10 -44 -5 0 -10 -16 -10 -35 l0 -35 65 0 65 0 0 35 c0 19 -4 35 -10 35 -5 0 -10 15 -10 33 0 32 1 32 40 29 l40 -4 0 51 0 51 175 0 175 0 0 -29 c0 -17 4 -33 10 -36 5 -3 10 -19 10 -36 0 -26 -3 -29 -31 -29 l-30 0 3 -52 3 -53 108 -1 107 -1 0 53 0 54 -36 0 c-36 0 -36 1 -30 33 4 17 9 47 13 65 l5 32 207 0 206 0 -3 -76 c-3 -53 -8 -77 -18 -81 -8 -3 -14 -19 -14 -39 l0 -34 125 0 125 0 0 34 c0 20 -6 36 -14 39 -10 4 -15 28 -18 81 l-3 76 188 0 187 0 0 -29 c0 -17 5 -33 10 -36 6 -3 10 -24 10 -45 0 -21 -4 -42 -10 -45 -5 -3 -10 -22 -10 -41 l0 -34 83 0 c51 0 88 5 95 12 7 7 12 39 12 74 0 42 5 65 15 74 8 7 15 25 15 41 l0 29 170 0 170 0 0 -29 c0 -17 5 -33 10 -36 6 -3 10 -26 10 -51 0 -24 -4 -44 -10 -44 -5 0 -10 -16 -10 -35 l0 -35 95 0 95 0 0 45 c0 25 -4 45 -10 45 -5 0 -10 9 -10 20 0 11 5 20 10 20 6 0 10 23 10 50 l0 50 170 0 170 0 0 -30 c0 -16 5 -30 10 -30 6 0 10 -22 10 -50 0 -27 -4 -50 -10 -50 -5 0 -10 -16 -10 -35 l0 -35 70 0 70 0 0 35 c0 19 -4 35 -10 35 -5 0 -10 14 -10 30 0 28 3 30 35 30 l35 0 0 50 c0 38 4 50 15 50 10 0 15 11 15 35 l0 35 -3916 0 -3917 0 7 -62z m2805 -140 c-22 -41 -49 -4 -29 40 l12 27 13 -25 c9 -17 10 -30 4 -42z m1631 11 c0 -28 -4 -39 -15 -39 -11 0 -15 11 -15 38 0 21 3 42 6 45 14 13 24 -6 24 -44z m1640 0 c0 -28 -4 -39 -15 -39 -11 0 -15 11 -15 38 0 21 3 42 6 45 14 13 24 -6 24 -44z"></path>
			<path id="pfsvJzqxd"
				d="M1535 1996 l0 -214 44 -6 c74 -10 341 -7 341 4 0 6 45 10 115 10 l115 0 0 -30 c0 -33 43 -80 72 -80 12 0 18 -8 18 -24 0 -22 4 -23 82 -30 52 -4 85 -3 92 4 5 5 23 10 38 10 17 0 28 5 28 13 0 10 12 12 53 6 70 -10 109 -10 125 -1 7 5 15 33 19 63 3 30 10 57 15 60 5 3 12 38 15 77 4 44 10 72 17 72 8 0 10 -13 8 -35 -5 -38 19 -85 42 -85 7 0 33 -16 57 -35 24 -19 50 -35 57 -35 6 0 12 -5 12 -11 0 -20 115 0 187 32 91 41 123 72 123 120 0 21 -6 40 -12 42 -7 3 2 8 20 12 28 7 32 11 32 41 0 19 -4 34 -10 34 -5 0 -10 18 -10 40 0 32 4 40 18 40 10 0 27 6 38 14 16 12 22 12 38 1 26 -19 15 -100 -14 -108 -16 -4 -20 -14 -20 -46 0 -35 3 -41 25 -47 14 -3 25 -12 25 -20 0 -17 42 -108 53 -112 4 -2 7 -10 7 -18 0 -10 13 -14 45 -14 33 0 45 4 45 15 0 9 9 15 25 15 16 0 25 -6 25 -15 0 -12 13 -15 58 -15 31 0 101 -3 155 -7 86 -5 97 -4 97 10 0 10 4 17 9 17 17 0 49 96 56 168 7 62 5 72 -8 72 -13 0 -15 9 -10 53 6 55 15 67 48 67 20 0 20 -4 14 -72 -4 -40 -8 -110 -8 -155 l-1 -83 35 0 35 0 0 65 c0 37 4 65 10 65 6 0 10 -25 10 -55 0 -50 2 -55 25 -61 14 -3 55 -3 91 1 l66 7 -4 39 c-2 21 0 39 4 39 5 0 8 23 8 50 0 37 4 50 15 50 15 0 19 -17 34 -127 7 -58 6 -63 -13 -70 -12 -3 -36 -5 -55 -4 -20 2 -37 -3 -42 -11 -7 -10 -9 -10 -9 0 0 8 -17 12 -50 12 l-50 0 0 -60 c0 -47 -3 -60 -15 -60 -9 0 -15 9 -15 24 0 14 -12 38 -26 55 -21 25 -33 31 -65 31 -36 0 -39 -2 -39 -29 0 -37 61 -101 96 -101 19 0 24 -5 24 -25 0 -22 4 -25 35 -25 19 0 35 -4 35 -10 0 -5 11 -10 24 -10 21 0 24 -5 29 -58 6 -70 30 -121 92 -193 l46 -54 -33 -3 c-18 -2 -37 -7 -43 -12 -5 -4 -19 -4 -30 1 -36 14 -105 10 -111 -6 -8 -20 -21 -19 -51 5 -34 26 -117 28 -133 3 -7 -13 -8 6 -4 70 l7 87 -41 0 c-32 0 -44 -5 -53 -22 -10 -18 -38 -190 -39 -235 0 -7 -9 -13 -20 -13 -17 0 -20 -7 -20 -47 0 -27 7 -57 15 -67 10 -14 15 -44 14 -95 l0 -76 -25 80 c-37 123 -37 120 -15 287 27 203 29 188 -19 188 -55 0 -66 -22 -82 -157 -11 -108 -13 -113 -35 -113 -20 0 -23 -5 -23 -37 1 -21 7 -49 15 -63 10 -17 15 -60 15 -135 1 -60 5 -164 9 -229 8 -113 10 -121 35 -143 36 -31 89 -31 119 0 l22 22 22 -22 c16 -16 34 -23 63 -23 74 0 98 51 86 190 -6 74 -39 220 -70 306 -12 35 -12 55 -1 135 11 79 13 86 14 44 2 -65 20 -112 65 -174 47 -64 91 -91 161 -98 69 -7 73 0 57 125 -7 52 -10 97 -7 100 9 9 37 -24 79 -94 23 -37 58 -81 79 -98 36 -29 45 -31 115 -31 l77 0 -1 55 c0 30 -4 74 -8 98 -7 34 -6 42 6 42 11 0 17 -14 20 -44 7 -57 38 -117 69 -133 31 -16 131 -17 147 -1 15 15 16 112 1 141 -12 21 -11 21 8 5 11 -10 34 -18 51 -18 31 0 32 2 32 41 0 36 -7 48 -59 102 -57 59 -60 61 -118 65 -62 4 -123 -16 -123 -40 0 -7 -13 1 -30 17 -24 23 -30 37 -30 71 0 68 -20 196 -36 226 -21 41 -18 48 26 48 34 0 46 7 85 46 32 34 45 55 45 75 0 24 -4 29 -25 29 -25 0 -25 1 -25 85 0 74 2 86 20 95 14 7 20 21 20 45 0 27 -4 34 -22 37 -19 2 -24 10 -26 46 l-3 42 41 0 40 0 -2 -142 c-2 -106 0 -142 10 -145 18 -7 16 -73 -3 -73 -18 0 -20 -39 -5 -102 5 -24 13 -82 16 -130 l6 -88 39 0 c37 0 39 1 39 32 0 18 5 56 12 84 l12 51 63 -46 62 -46 -3 -187 c-2 -104 0 -188 4 -188 4 0 6 -18 3 -40 -4 -30 -1 -45 11 -59 11 -13 18 -41 21 -82 2 -35 8 -65 14 -67 17 -6 13 -32 -4 -32 -16 0 -20 -34 -9 -89 5 -22 14 -33 30 -37 19 -5 24 -13 24 -40 0 -19 -5 -34 -11 -34 -21 0 -3 -86 27 -134 27 -42 32 -45 72 -46 38 0 42 2 42 24 0 13 5 26 12 28 14 5 37 90 38 142 0 29 7 45 26 63 25 23 26 26 19 113 -6 82 -6 89 13 99 20 11 21 13 38 176 3 28 7 120 8 205 2 85 4 165 5 178 1 13 7 22 17 22 9 0 35 16 58 35 24 19 47 35 52 35 11 0 34 -92 34 -133 0 -26 1 -27 65 -26 79 1 96 -12 110 -90 8 -43 14 -57 30 -59 11 -3 24 -10 28 -18 4 -8 15 -14 23 -14 8 0 19 -11 24 -25 6 -15 17 -25 30 -25 13 0 22 -9 26 -25 4 -16 13 -25 25 -25 10 0 19 -4 19 -10 0 -5 14 -10 31 -10 22 0 39 8 55 28 13 15 24 21 24 15 0 -9 17 -13 50 -13 28 0 50 5 50 10 0 6 11 10 25 10 17 0 29 9 40 30 9 17 22 30 30 30 16 0 29 25 39 73 6 24 11 27 45 27 46 0 71 24 71 68 0 27 4 32 23 32 32 0 95 49 104 80 3 14 17 33 30 43 14 11 23 29 23 46 0 16 5 42 11 60 9 26 16 31 44 31 18 0 35 5 37 11 5 15 98 25 98 10 0 -6 7 -11 15 -11 8 0 15 -4 15 -10 0 -5 16 -10 35 -10 31 0 36 4 41 29 5 24 13 30 40 36 24 4 34 11 34 24 0 17 10 19 91 23 73 2 93 7 104 21 11 15 14 3 20 -80 4 -56 13 -106 21 -118 8 -11 14 -34 14 -53 0 -18 7 -47 16 -63 13 -26 20 -30 52 -27 l37 3 8 70 c5 39 9 97 10 130 2 52 5 61 25 70 17 8 22 18 22 50 0 22 5 47 10 55 8 13 10 12 10 -4 0 -11 8 -43 17 -73 l17 -53 78 0 c71 0 81 -2 102 -25 32 -34 79 -34 94 0 9 19 20 25 44 26 18 0 56 6 83 12 l50 12 11 65 12 65 1 -58 c1 -63 -12 -87 -48 -87 -17 0 -21 -6 -21 -35 0 -21 5 -35 13 -35 6 0 48 -36 92 -80 101 -100 121 -103 198 -32 86 80 131 110 167 114 33 3 35 5 41 48 5 37 6 39 7 13 1 -22 7 -33 17 -33 8 0 15 -4 15 -10 0 -12 60 -13 79 -1 11 7 12 23 7 72 -12 105 -14 109 -52 109 -19 0 -34 -4 -34 -10 0 -5 -12 -10 -26 -10 -24 0 -26 -3 -22 -40 2 -23 -1 -40 -7 -40 -6 0 -11 54 -13 144 -1 112 1 150 13 172 14 28 15 25 15 -63 l0 -93 35 0 35 0 0 90 c0 73 3 90 15 90 11 0 15 -12 15 -50 0 -47 2 -50 25 -50 14 0 25 -4 25 -10 0 -5 11 -10 25 -10 18 0 25 -5 25 -20 0 -17 7 -20 39 -20 33 0 40 4 45 25 5 18 13 25 31 25 20 0 25 -5 25 -25 0 -24 2 -25 65 -25 64 0 64 0 74 33 l9 32 1 -37 1 -38 -45 0 c-25 0 -45 -4 -45 -8 0 -5 -40 -6 -90 -4 l-90 4 0 -36 c0 -32 3 -36 25 -36 18 0 25 -5 25 -20 0 -18 7 -20 85 -20 69 0 85 3 85 15 0 11 11 15 40 15 22 0 40 -4 40 -10 0 -5 23 -10 50 -10 43 0 50 -3 50 -20 0 -11 -7 -20 -15 -20 -11 0 -15 -11 -15 -40 0 -38 -2 -40 -30 -40 -27 0 -30 3 -30 31 0 50 -18 59 -119 59 l-91 0 0 -35 c0 -33 2 -35 35 -35 l35 0 0 -65 c0 -37 -4 -65 -10 -65 -15 0 -12 -63 4 -85 13 -19 35 -20 362 -28 244 -6 350 -5 352 2 2 6 8 11 14 11 20 0 37 35 38 78 0 23 -4 42 -10 42 -5 0 -10 16 -10 35 0 32 2 35 30 35 l30 0 0 255 0 255 -3912 0 -3913 0 0 -214z m545 104 c0 -11 -4 -20 -10 -20 -5 0 -10 9 -10 20 0 11 5 20 10 20 6 0 10 -9 10 -20z m1400 8 c-42 -12 -50 -22 -50 -65 0 -20 -5 -33 -12 -33 -9 0 -12 16 -10 55 l4 55 51 -1 c52 -1 52 -1 17 -11z m780 -8 c0 -11 -7 -20 -15 -20 -8 0 -15 9 -15 20 0 11 7 20 15 20 8 0 15 -9 15 -20z m800 -7 c0 -38 10 -50 45 -56 l30 -4 -32 -2 c-18 0 -33 -5 -33 -11 0 -16 -37 -11 -44 6 -3 8 -3 33 0 55 8 45 34 55 34 12z m460 -3 c0 -20 -5 -30 -15 -30 -10 0 -15 10 -15 30 0 20 5 30 15 30 10 0 15 -10 15 -30z m1307 -52 c-2 -18 -4 -6 -4 27 0 33 2 48 4 33 2 -15 2 -42 0 -60z m323 66 c0 -8 -5 -24 -10 -34 -6 -11 -13 -52 -16 -92 -7 -101 -14 -139 -32 -166 -13 -20 -17 -21 -24 -8 -13 23 -12 240 1 244 6 2 11 19 11 38 0 32 2 34 35 34 25 0 35 -4 35 -16z m1476 -6 c-3 -13 -6 -29 -6 -35 0 -7 -9 -13 -20 -13 -16 0 -20 7 -20 35 0 31 3 35 26 35 22 0 25 -3 20 -22z m234 7 c0 -12 -16 -15 -80 -15 -66 0 -78 2 -74 15 5 11 24 15 80 15 59 0 74 -3 74 -15z m130 -80 l0 -95 -92 2 c-83 2 -85 2 -25 5 l67 4 0 89 c0 89 0 90 25 90 25 0 25 0 25 -95z m290 38 c0 -32 3 -68 6 -80 6 -21 3 -23 -35 -23 l-41 0 0 80 0 80 35 0 35 0 0 -57z m-5460 37 c0 -6 -26 -10 -57 -10 -41 0 -54 3 -43 10 20 13 100 13 100 0z m2282 -24 c40 -19 82 -36 93 -38 18 -3 20 -10 17 -73 l-4 -70 69 -34 68 -34 -1 -56 c0 -32 -6 -57 -12 -59 -7 -2 -12 -21 -12 -43 0 -32 -3 -39 -20 -39 -16 0 -20 -7 -20 -30 0 -23 -6 -33 -25 -40 -14 -5 -25 -14 -25 -20 0 -5 -10 -10 -21 -10 -12 0 -37 -9 -55 -21 -26 -16 -34 -28 -34 -49 0 -25 -4 -29 -32 -32 -30 -3 -34 -7 -42 -45 -7 -36 -13 -43 -33 -43 -13 0 -26 -7 -29 -15 -4 -9 -19 -15 -35 -15 -19 0 -29 -5 -29 -15 0 -9 -9 -15 -24 -15 -50 0 -85 -13 -92 -33 -6 -18 -8 -17 -20 11 -7 18 -20 32 -28 32 -8 0 -17 8 -20 18 -3 9 -26 26 -51 37 -42 19 -45 22 -46 60 -1 61 -10 75 -69 103 -58 29 -66 47 -33 84 13 14 15 33 10 88 l-6 71 30 6 c28 5 29 7 29 63 0 49 -3 58 -20 63 -13 3 -20 14 -20 30 0 17 -7 28 -20 32 -37 12 -7 42 50 50 42 6 50 10 50 28 0 13 13 31 30 43 27 19 36 20 91 11 45 -7 67 -7 80 1 10 7 31 12 46 12 16 0 35 5 43 10 31 20 98 10 172 -24z m3016 -32 c39 -11 27 -34 -18 -34 -33 0 -40 3 -40 20 0 21 16 25 58 14z m-6580 -36 c2 -16 9 -28 16 -28 8 0 11 -12 8 -35 -2 -19 -8 -35 -13 -35 -5 0 -9 -7 -9 -15 0 -8 -4 -15 -10 -15 -5 0 -10 -11 -10 -25 0 -14 -3 -25 -7 -25 -21 1 -52 41 -59 76 -3 21 -13 52 -22 69 -10 20 -11 30 -3 33 6 2 11 10 11 18 0 12 11 14 48 12 43 -3 47 -5 50 -30z m262 17 c0 -8 -4 -15 -10 -15 -5 0 -10 7 -10 15 0 8 5 15 10 15 6 0 10 -7 10 -15z m6008 -12 c-16 -2 -40 -2 -55 0 -16 2 -3 4 27 4 30 0 43 -2 28 -4z m-6708 -102 c0 -38 0 -38 -46 -45 -83 -11 -104 -8 -104 14 0 17 7 20 40 20 22 0 40 5 40 10 0 6 7 10 15 10 8 0 15 7 15 15 0 8 9 15 20 15 17 0 20 -7 20 -39z m4804 -16 c-6 -16 -24 -21 -24 -7 0 11 11 22 21 22 5 0 6 -7 3 -15z m-5164 -9 c0 -38 -12 -46 -64 -45 -28 1 -43 3 -33 6 10 3 17 14 17 29 0 21 4 24 40 24 28 0 40 -4 40 -14z m450 -1 c0 -8 -4 -15 -10 -15 -5 0 -10 7 -10 15 0 8 5 15 10 15 6 0 10 -7 10 -15z m4380 -15 c0 -20 -5 -30 -15 -30 -10 0 -15 10 -15 30 0 20 5 30 15 30 10 0 15 -10 15 -30z m141 -6 c-5 -16 -10 -21 -10 -12 -1 18 10 51 15 45 2 -1 -1 -16 -5 -33z m-3061 -14 c0 -38 -2 -40 -30 -40 -22 0 -30 5 -30 18 0 9 -3 27 -6 40 -6 20 -3 22 30 22 35 0 36 -1 36 -40z m810 -40 c0 -5 -18 -10 -40 -10 -22 0 -40 5 -40 10 0 6 18 10 40 10 22 0 40 -4 40 -10z m-2059 -38 c7 -19 5 -22 -16 -22 -16 0 -25 -6 -25 -15 0 -8 -9 -15 -20 -15 -13 0 -20 7 -20 20 0 15 7 20 25 20 19 0 25 5 25 21 0 26 20 20 31 -9z m6459 -77 l0 -45 40 0 c22 0 40 -4 40 -10 0 -5 20 -10 44 -10 48 0 56 11 56 78 0 27 3 32 25 32 22 0 25 -4 25 -35 l0 -35 70 0 c67 0 70 -1 70 -24 0 -22 -5 -23 -77 -30 -42 -3 -163 -6 -270 -6 -186 0 -193 -1 -193 -20 0 -15 -7 -20 -29 -20 -37 0 -41 6 -31 55 4 22 8 34 9 28 1 -10 28 -13 101 -13 l100 0 0 50 c0 28 5 50 10 50 6 0 10 -20 10 -45z m-4580 15 c0 -16 -7 -20 -30 -20 -23 0 -30 4 -30 20 0 16 7 20 30 20 23 0 30 -4 30 -20z m3690 6 c0 -2 -7 -9 -15 -16 -12 -10 -15 -10 -15 4 0 9 7 16 15 16 8 0 15 -2 15 -4z m-3678 -163 c34 -37 55 -79 63 -128 l6 -40 -41 45 c-42 46 -70 98 -70 131 0 26 12 24 42 -8z m748 -133 c0 -5 -9 -10 -20 -10 -11 0 -20 5 -20 10 0 6 9 10 20 10 11 0 20 -4 20 -10z m29 -380 c-15 -10 -79 -1 -98 14 -11 8 -1 12 45 16 45 4 60 2 62 -9 2 -7 -2 -17 -9 -21z"></path>
			<path id="pKF89rNhQ"
				d="M1048 1803 c-13 -3 -18 -14 -18 -37 0 -37 52 -105 98 -129 15 -7 65 -35 112 -61 47 -26 132 -68 190 -93 291 -126 380 -188 506 -350 72 -92 107 -161 125 -252 23 -120 -10 -252 -81 -320 -79 -75 -234 -117 -387 -105 l-93 6 0 -34 c0 -26 5 -37 23 -45 12 -5 43 -20 70 -33 44 -21 55 -23 160 -17 188 11 322 59 395 142 82 93 107 182 99 359 -5 149 -28 227 -97 328 -94 140 -215 249 -370 335 -74 41 -331 143 -377 150 -94 13 -169 51 -244 123 -41 39 -63 46 -111 33z"></path>
			<path id="p128qNws5F"
				d="M2460 1354 c-6 -14 -13 -50 -16 -80 -4 -30 -9 -54 -11 -54 -2 0 -16 12 -31 26 -50 48 -127 68 -173 44 -26 -15 -27 -106 0 -158 26 -51 120 -142 152 -149 l27 -5 4 -127 c3 -113 7 -133 31 -182 16 -34 37 -60 52 -67 41 -19 98 -15 123 8 19 18 22 31 22 104 0 106 -27 214 -81 317 l-42 81 11 106 c18 164 18 162 -23 162 -29 0 -37 -5 -45 -26z m75 -561 c8 -37 13 -69 11 -71 -7 -6 -34 75 -40 123 -9 71 11 35 29 -52z"></path>
			<path id="p1GDmafsAl"
				d="M2631 1274 c-30 -25 -31 -29 -31 -102 0 -100 14 -148 55 -189 30 -30 39 -33 92 -33 82 0 86 4 81 89 -2 46 0 67 6 61 6 -6 25 -10 43 -10 33 0 33 1 33 47 0 43 -4 50 -50 95 -59 57 -84 68 -150 68 -38 0 -55 -6 -79 -26z"></path>
			<path id="p1Giww8yYs"
				d="M3165 1288 c-9 -24 -55 -287 -55 -313 0 -23 3 -25 49 -25 l49 0 11 77 c6 42 13 78 15 80 6 6 54 -120 61 -160 7 -33 10 -37 39 -37 52 0 60 11 53 77 -7 78 -32 149 -81 236 l-41 72 -48 3 c-32 2 -49 -1 -52 -10z"></path>
			<path id="p93cjaNur"
				d="M3435 1288 c-8 -23 -25 -327 -19 -343 4 -10 20 -15 49 -15 l42 0 6 103 c4 56 10 139 13 185 l7 82 -47 0 c-28 0 -48 -5 -51 -12z"></path>
			<path id="pDOPb9uT3"
				d="M404 1260 c-66 -26 -100 -138 -90 -291 8 -117 22 -181 61 -264 60 -129 164 -215 263 -215 63 0 82 13 82 59 0 35 -3 39 -38 49 -85 26 -172 105 -207 189 -7 17 -23 72 -35 122 -27 110 -22 167 19 213 l27 30 41 -20 c44 -23 102 -85 134 -142 54 -96 52 -95 105 -95 112 1 194 46 194 106 0 31 1 30 28 -22 31 -63 57 -79 128 -79 75 0 87 13 82 93 -2 42 0 63 6 57 6 -6 20 -10 33 -10 22 0 23 -3 23 -90 l0 -90 50 0 50 0 0 103 c1 107 14 117 27 20 7 -54 15 -63 58 -63 54 0 57 8 50 109 -5 62 -4 91 3 91 6 0 14 -4 17 -10 3 -5 24 -10 47 -10 37 0 40 -2 35 -22 -3 -13 -9 -65 -13 -115 l-7 -93 47 0 c43 0 48 2 57 30 9 25 14 28 29 20 10 -6 51 -10 90 -10 l71 0 -3 38 c-3 31 -8 39 -34 47 -87 29 -126 89 -125 196 0 64 -2 69 -23 75 -13 3 -37 4 -52 2 -26 -3 -30 -7 -35 -48 -4 -34 -7 -40 -13 -27 -13 29 -61 47 -121 47 -37 0 -62 5 -71 15 -15 15 -79 20 -108 9 -9 -3 -18 -24 -22 -50 -3 -24 -9 -44 -13 -44 -3 0 -22 16 -41 36 -43 45 -66 54 -135 54 -43 0 -60 -5 -84 -26 -28 -24 -31 -31 -32 -87 l0 -62 -19 60 c-11 33 -31 72 -45 88 -22 23 -34 27 -79 27 -62 0 -93 -25 -102 -82 l-6 -34 -36 34 c-67 62 -131 92 -192 91 -30 0 -65 -4 -76 -9z m434 -165 c16 -34 15 -50 -2 -64 -17 -14 -26 5 -26 55 0 40 12 44 28 9z"></path>
			<path id="pnJGrQNT5"
				d="M3410 871 c0 -58 14 -73 67 -69 36 3 38 5 41 41 4 52 -19 77 -70 77 l-38 0 0 -49z"></path>
		</g>
	</g>
	<g id="l7mDKolbvbBUzMTRdDp6pgu" fill="rgb(255,255,255)" style="transform: none;">
		<g style="transform: none;">
			<path id="pJQghNBVK"
				d="M1 1838 c1 -456 5 -684 10 -649 5 30 31 100 58 156 40 83 60 111 107 154 73 65 158 106 249 120 76 11 283 4 301 -11 21 -16 135 9 163 36 45 46 27 99 -67 198 -49 51 -65 86 -32 68 13 -7 20 -6 23 3 2 7 34 -18 74 -59 54 -53 74 -81 83 -114 18 -67 1 -111 -58 -152 l-47 -33 -128 0 c-138 0 -141 -8 -7 -24 84 -9 84 -10 -47 -6 -152 3 -204 -5 -275 -40 -118 -59 -174 -129 -202 -251 -10 -44 -21 -86 -23 -94 -5 -14 -4 -57 3 -240 4 -110 3 -107 15 -90 8 11 9 6 4 -20 -4 -23 -3 -30 3 -22 7 11 11 8 16 -11 3 -14 3 -33 -1 -43 -5 -12 -3 -15 6 -9 10 6 11 2 6 -15 -5 -17 -4 -21 6 -15 9 6 11 3 6 -8 -8 -20 2 -49 13 -42 8 5 22 -25 19 -41 -3 -19 1 -37 8 -31 3 4 27 -26 53 -66 123 -191 301 -321 517 -378 132 -35 256 -11 361 68 58 43 102 66 102 52 0 -7 8 -5 21 6 20 19 20 19 9 -9 -14 -38 -32 -62 -87 -119 -54 -55 -81 -72 -155 -91 -46 -13 495 -15 4100 -15 l4152 -1 -1 948 c-1 524 -5 934 -10 917 -6 -24 -7 -22 -2 10 3 22 8 181 10 353 l4 312 -4223 -2 c-2323 -1 -4199 -3 -4170 -5 28 -2 52 -8 52 -12 0 -5 7 -12 16 -15 10 -4 13 -2 8 7 -4 6 2 4 13 -5 11 -10 28 -18 39 -17 15 1 14 3 -6 9 -21 7 -22 8 -5 9 36 1 95 -11 90 -20 -3 -4 11 -13 32 -18 46 -13 65 -13 38 0 -14 7 -6 8 29 4 63 -6 150 -46 170 -77 21 -31 5 -92 -30 -114 -32 -22 -158 -31 -179 -14 -27 23 -16 30 48 30 34 1 76 7 92 15 17 7 24 14 17 14 -7 1 -10 6 -6 13 4 7 3 8 -5 4 -6 -4 -8 -13 -4 -19 3 -7 -2 -5 -13 4 -29 25 -116 48 -301 79 -29 4 -60 15 -68 24 -13 13 -40 14 -183 10 -189 -6 -291 -24 -471 -81 -14 -4 -14 -3 -1 6 13 9 12 11 -5 11 -11 0 -28 9 -37 19 -16 19 -15 21 30 50 53 34 124 54 258 75 86 14 77 14 -248 15 l-338 1 1 -702z m9329 677 c0 -13 -438 -15 -3885 -15 -3447 0 -3885 2 -3885 15 0 13 438 15 3885 15 3447 0 3885 -2 3885 -15z m-7628 -82 c22 -20 23 -56 3 -73 -11 -9 -13 -16 -5 -24 16 -16 12 -44 -9 -56 -11 -5 -44 -10 -73 -9 -29 0 -47 3 -40 6 16 6 17 144 0 161 -20 20 101 16 124 -5z m491 10 c-9 -3 -13 -30 -13 -83 0 -53 4 -80 13 -83 6 -3 -8 -5 -33 -5 -25 0 -39 2 -32 5 8 3 12 30 12 83 0 53 -4 80 -12 83 -7 3 7 5 32 5 25 0 39 -2 33 -5z m502 -9 c10 -10 15 -29 13 -48 -2 -24 -11 -35 -38 -48 -38 -20 -47 -50 -16 -56 11 -2 26 4 33 14 12 17 13 16 13 -4 0 -18 -6 -22 -33 -22 -40 0 -57 15 -57 52 0 22 8 32 41 48 43 22 48 44 16 64 -15 9 -22 7 -37 -11 -21 -26 -30 -29 -30 -10 0 36 65 51 95 21z m527 4 c-7 -7 -12 -42 -12 -85 0 -66 2 -73 20 -73 10 0 24 8 29 18 10 16 10 16 11 0 0 -29 -2 -30 -77 -31 -64 -2 -73 0 -77 18 -7 26 0 31 19 11 34 -34 45 -21 45 57 0 43 -5 78 -12 85 -9 9 -3 12 27 12 30 0 36 -3 27 -12z m520 3 c-8 -5 -12 -23 -10 -47 l3 -39 25 45 c20 35 32 46 54 48 27 3 28 3 12 -13 -9 -9 -24 -31 -32 -47 -15 -28 -15 -32 0 -40 19 -11 21 -49 4 -66 -7 -7 -38 -12 -72 -11 -34 0 -55 3 -48 6 16 6 17 144 0 161 -9 9 -2 12 33 12 27 0 39 -3 31 -9z m627 -5 c29 -15 51 -53 51 -87 0 -35 -53 -79 -95 -79 -49 0 -74 15 -91 55 -34 83 52 154 135 111z m1059 8 c14 -4 22 -14 22 -27 0 -20 0 -20 -23 1 -31 29 -51 28 -76 -4 -57 -72 16 -176 82 -116 19 16 19 16 16 -3 -3 -16 -13 -21 -50 -23 -86 -6 -138 71 -93 136 25 36 70 49 122 36z m563 -4 c16 -9 19 -22 19 -80 0 -55 4 -71 18 -79 14 -8 10 -10 -18 -10 -19 0 -29 3 -22 6 16 6 16 135 0 151 -7 7 -21 12 -33 12 -12 0 -26 -5 -33 -12 -16 -16 -16 -145 1 -151 6 -3 -8 -6 -33 -6 -25 0 -40 3 -34 7 6 4 13 38 16 76 3 52 9 72 23 82 22 17 68 18 96 4z m577 -18 l4 -24 -30 22 c-17 12 -35 19 -41 16 -16 -10 -14 -153 2 -159 6 -3 -6 -5 -28 -5 -22 0 -34 2 -27 5 8 3 12 28 12 77 0 44 -5 77 -12 85 -11 10 0 11 52 9 59 -3 65 -5 68 -26z m472 9 c-5 -11 -10 -47 -10 -81 0 -68 16 -86 50 -55 19 18 20 17 20 -6 0 -23 -2 -24 -77 -22 -74 1 -78 2 -82 24 -3 23 -2 23 16 6 35 -31 43 -22 43 56 0 43 -5 78 -12 85 -9 9 -4 12 25 12 34 0 37 -2 27 -19z m591 9 c16 -9 19 -22 19 -80 0 -55 4 -71 18 -79 14 -8 10 -10 -18 -10 -19 0 -29 3 -22 6 16 6 16 135 0 151 -7 7 -21 12 -33 12 -12 0 -26 -5 -33 -12 -16 -16 -16 -145 1 -151 6 -3 -8 -6 -33 -6 -35 0 -41 2 -27 10 14 8 17 24 17 80 0 63 2 71 23 79 30 12 65 12 88 0z m511 -2 c-13 -13 -17 -78 -4 -78 4 0 18 20 30 45 18 37 27 45 48 45 25 0 26 -1 12 -17 -9 -10 -23 -32 -32 -50 -13 -27 -14 -32 -1 -37 18 -7 20 -47 3 -64 -7 -7 -37 -12 -67 -12 -43 0 -52 3 -43 12 7 7 12 40 12 78 0 38 -5 71 -12 78 -9 9 -3 12 27 12 30 0 36 -3 27 -12z m627 -16 c0 -15 -3 -21 -6 -14 -7 18 -39 33 -57 26 -24 -9 -22 -74 2 -74 10 0 23 5 30 12 9 9 12 5 12 -21 0 -30 -1 -31 -16 -16 -23 22 -38 14 -42 -23 -3 -28 0 -32 22 -32 14 0 28 5 31 10 9 15 25 12 25 -5 0 -12 -14 -15 -67 -14 -38 0 -62 3 -55 6 16 6 17 144 1 160 -9 9 5 12 55 12 65 0 66 -1 65 -27z m531 3 l0 -25 -21 21 c-11 11 -26 18 -32 16 -18 -5 -22 -148 -5 -158 8 -5 -5 -8 -32 -8 -25 0 -39 3 -32 6 8 3 12 30 12 83 0 53 -4 80 -12 83 -7 3 17 6 55 6 65 1 67 0 67 -24z m-8452 -37 c22 -22 13 -28 -39 -28 -58 0 -141 -19 -134 -30 3 -5 -5 -6 -17 -3 -13 3 -19 2 -15 -3 4 -4 -7 -16 -25 -27 l-33 -18 33 5 c41 7 30 -7 -39 -46 -63 -37 -116 -94 -136 -148 -9 -25 -20 -50 -25 -56 -12 -16 1 -44 21 -44 12 0 13 2 3 9 -10 6 -7 10 13 15 15 4 30 5 33 1 3 -3 -3 -5 -13 -5 -10 0 -16 -2 -13 -5 3 -4 18 -3 33 1 20 5 23 9 13 15 -8 6 1 7 22 3 24 -4 31 -3 21 4 -19 14 63 30 214 42 134 11 219 1 326 -39 46 -18 58 -27 62 -49 3 -15 1 -29 -4 -30 -6 -2 -4 -11 3 -19 11 -14 10 -15 -7 -10 -11 4 -42 11 -70 17 -27 5 -79 17 -115 25 -131 29 -316 9 -495 -54 -68 -24 -68 -24 -60 -11 3 5 0 7 -9 4 -21 -8 -76 24 -76 44 0 15 2 15 11 2 7 -11 8 -5 2 20 -11 48 -10 129 2 138 15 11 60 76 46 68 -22 -14 -10 13 27 61 45 56 156 126 185 117 11 -3 17 -2 14 3 -3 5 2 9 11 10 9 1 40 8 67 17 61 18 147 20 163 4z m99 0 c15 -7 40 -20 55 -31 16 -10 32 -16 37 -13 5 3 15 -2 22 -12 13 -16 13 -16 -6 -2 -19 14 -19 14 -6 -3 8 -9 16 -15 19 -12 3 3 14 -2 24 -12 27 -24 24 4 -4 36 -18 19 -13 17 20 -8 23 -18 54 -53 68 -77 17 -30 33 -44 47 -45 21 0 21 -1 2 -9 -19 -8 -18 -9 5 -11 14 -1 33 -3 42 -3 10 -1 23 -8 30 -16 11 -12 10 -12 -7 0 -18 14 -19 14 -7 -2 8 -9 19 -14 27 -12 17 7 57 -62 81 -138 22 -73 9 -129 -35 -147 -29 -13 -77 -6 -88 12 -4 6 -1 7 8 2 11 -7 12 -6 2 6 -15 18 -6 59 13 59 8 0 14 5 14 11 0 27 -24 90 -40 104 -16 14 -22 14 -65 -5 -53 -23 -63 -19 -68 25 -4 34 -26 77 -75 142 -19 25 -28 41 -20 37 38 -23 -20 29 -68 61 -30 20 -54 38 -54 40 0 2 -3 10 -6 19 -7 19 -3 20 33 4z m8382 -325 c-1 -93 -3 -108 -10 -73 -4 25 -8 71 -8 103 l-1 57 -200 0 -200 0 -2 -92 c-1 -51 -3 -74 -5 -50 -3 28 -9 42 -19 42 -8 0 -15 -8 -15 -17 -1 -17 -2 -17 -6 0 -4 14 -17 17 -84 17 l-79 0 -1 -32 -2 -33 -4 30 c-3 16 -10 33 -16 37 -7 4 39 8 101 8 109 0 112 1 112 23 0 12 3 32 6 45 6 22 6 22 -104 22 -78 0 -112 -4 -116 -12 -5 -10 -7 -10 -12 -1 -3 8 -26 13 -60 13 l-54 0 -2 -52 -2 -53 -3 53 c-3 44 -7 52 -24 52 -16 0 -19 -8 -21 -47 l-2 -48 -3 48 c-4 46 -5 47 -37 47 l-34 0 4 -67 c3 -67 -1 -59 -12 25 -5 36 -8 42 -30 42 -23 0 -24 -3 -26 -62 l-2 -63 -3 63 c-3 54 -7 62 -23 62 -17 0 -20 -8 -22 -52 l-2 -53 -3 53 -4 52 -45 0 -44 0 -2 -92 -2 -93 -3 93 -4 92 -54 0 c-30 0 -55 -4 -55 -10 0 -5 9 -10 21 -10 11 0 18 -4 14 -10 -3 -5 -12 -7 -20 -3 -13 4 -15 -9 -13 -78 l2 -84 6 75 6 75 2 -75 c1 -41 -1 -99 -4 -127 -6 -49 -9 -53 -33 -52 -23 2 -24 2 -3 6 18 4 22 11 22 39 0 39 -5 40 -57 17 -65 -29 -73 -41 -73 -100 0 -54 7 -61 44 -47 12 4 16 20 16 55 0 52 -16 68 -22 22 -3 -27 -4 -27 -9 5 -5 31 -4 33 20 30 22 -3 26 -8 29 -42 2 -22 1 -50 -3 -63 -5 -21 -11 -24 -43 -21 l-37 3 -3 62 c-2 42 -7 61 -15 59 -7 -1 -9 -1 -4 1 4 3 5 9 2 13 -3 5 29 20 72 34 l78 25 -55 0 c-30 0 -79 -4 -108 -8 -29 -4 -55 -4 -58 1 -3 4 19 9 48 10 40 1 31 3 -37 9 -85 6 -83 6 33 4 122 -2 122 -2 122 21 0 17 4 22 15 18 10 -4 15 0 15 13 0 13 -8 19 -25 21 -18 1 -25 -3 -25 -16 0 -14 -2 -14 -9 -3 -7 12 -10 11 -14 -5 -2 -10 -2 -2 0 19 3 23 1 37 -6 37 -6 0 -11 -6 -11 -14 0 -18 -27 -28 -33 -13 -2 7 -3 29 0 50 l4 37 -51 0 c-27 0 -50 5 -50 10 0 6 -6 10 -14 10 -13 0 -24 -50 -27 -124 -2 -28 -3 -27 -8 9 -5 31 -10 40 -26 40 -11 0 -19 -6 -18 -12 2 -7 -2 -12 -9 -10 -7 1 -15 -11 -19 -28 -5 -19 -7 -3 -6 48 2 73 1 78 -18 75 -17 -3 -20 -11 -21 -53 l-2 -50 8 50 c5 38 7 20 8 -75 1 -91 -1 -121 -9 -110 -8 11 -9 8 -3 -15 9 -39 6 -87 -6 -99 -10 -10 -13 14 -11 89 1 30 -1 36 -8 25 -7 -9 -11 -10 -11 -3 0 6 -17 14 -37 16 -35 3 -34 4 10 5 46 2 47 3 47 33 0 25 -3 30 -17 25 -17 -6 -17 -5 0 8 11 9 17 26 16 52 -2 30 -3 33 -6 12 -2 -16 -8 -28 -13 -28 -4 0 -6 8 -3 19 3 10 0 22 -6 25 -15 9 -15 -86 0 -101 7 -7 -2 -15 -30 -27 -29 -11 -41 -22 -41 -36 0 -11 -9 -43 -20 -72 -25 -65 -25 -61 5 -56 14 3 28 0 32 -6 3 -6 3 -8 -1 -5 -4 4 -23 3 -42 -1 -35 -8 -38 -5 -35 33 2 12 -5 17 -24 17 -20 0 -26 -4 -21 -16 3 -8 2 -12 -4 -9 -6 3 -10 2 -10 -4 0 -5 6 -12 13 -14 6 -3 -22 -5 -63 -5 -55 0 -66 2 -40 7 19 4 45 6 58 4 12 -2 22 0 22 4 -1 15 -27 43 -33 36 -4 -3 -7 9 -8 28 -1 32 -2 32 -9 9 -7 -21 -8 -19 -9 18 -1 28 3 42 12 42 13 0 40 -59 43 -93 1 -10 5 -21 9 -25 5 -4 5 1 2 11 -4 11 -3 16 3 12 6 -4 11 13 12 42 l1 48 7 -45 7 -45 3 45 c1 25 2 49 1 53 -1 5 3 6 9 2 6 -4 38 6 71 22 l61 28 -5 75 c-3 41 -3 67 0 58 3 -11 14 -18 29 -18 19 0 24 5 24 25 0 22 -4 25 -39 25 -22 0 -46 3 -55 6 -14 5 -16 -5 -17 -67 -1 -41 -4 -64 -6 -53 -3 14 -11 21 -21 19 -9 -1 -11 0 -4 2 15 6 16 25 0 41 -9 9 -9 12 0 12 7 0 12 11 12 25 0 24 -3 25 -54 25 l-55 0 -5 -42 c-13 -96 -14 -100 -12 -30 l2 72 -73 0 -73 0 -2 -87 -2 -88 -3 88 c-3 78 -6 87 -23 87 -15 0 -21 -9 -26 -40 -4 -22 -10 -43 -15 -46 -10 -6 -5 41 6 69 6 15 -1 17 -75 17 -60 0 -85 -4 -97 -16 -14 -14 -14 -17 7 -31 20 -14 20 -17 6 -25 -10 -6 -14 -19 -12 -39 2 -17 0 -47 -5 -67 -4 -20 -4 -41 1 -47 4 -5 11 -41 14 -80 3 -38 8 -95 12 -125 3 -30 3 -52 -2 -47 -4 4 -9 26 -11 50 -2 23 -6 74 -9 114 -7 93 -22 106 -59 53 -15 -22 -30 -38 -33 -36 -5 6 35 66 55 82 8 7 15 37 16 74 2 38 9 65 17 70 11 7 7 12 -13 21 -19 9 -24 16 -17 24 11 13 3 25 -15 25 -9 0 -11 -21 -9 -72 l3 -73 -11 63 c-6 34 -16 62 -22 62 -6 0 -5 4 3 9 9 6 -16 9 -67 10 l-82 1 -2 -78 -2 -77 -3 78 c-2 42 -7 77 -11 77 -17 -1 -34 -19 -32 -36 1 -11 2 -26 1 -34 -1 -12 -4 -12 -12 3 -16 28 -29 20 -31 -20 l-1 -38 -4 38 -4 37 -67 2 c-37 0 -52 3 -34 5 24 3 32 9 32 24 0 14 -7 19 -25 19 -14 0 -25 -6 -25 -12 0 -9 -4 -8 -10 2 -7 11 -10 -6 -11 -55 -2 -68 -3 -66 -15 23 -3 28 -10 42 -20 42 -12 0 -14 -11 -10 -52 l5 -53 -10 53 c-8 41 -15 52 -30 52 -20 0 -22 -7 -21 -95 0 -44 -1 -41 -10 23 -7 50 -14 72 -24 72 -8 0 -14 -7 -14 -15 0 -8 5 -15 11 -15 8 0 8 -4 1 -13 -6 -6 -12 -28 -15 -47 l-4 -35 -1 38 -2 37 -71 0 c-56 0 -69 -3 -61 -12 5 -7 10 -42 10 -78 0 -36 0 -71 1 -77 2 -20 96 -63 141 -65 22 -1 38 -4 35 -6 -3 -3 2 -17 11 -31 9 -14 11 -20 4 -14 -21 19 -45 -4 -28 -26 12 -14 11 -14 -5 -2 -23 18 -29 11 -32 -45 -2 -25 -8 -51 -14 -57 -5 -5 -7 -22 -5 -37 5 -21 0 -32 -18 -46 -14 -11 -28 -30 -32 -44 -8 -31 -62 -75 -90 -72 -11 0 -32 -6 -45 -15 -21 -14 -22 -17 -8 -25 10 -5 17 -14 17 -20 0 -15 -30 -48 -44 -48 -6 0 -3 5 7 11 21 13 22 45 1 57 -14 8 -10 13 19 31 19 11 44 21 56 21 11 0 21 4 21 9 0 6 12 16 28 23 19 9 27 21 27 38 0 16 7 27 20 31 16 4 20 13 19 42 -1 20 2 37 6 37 15 0 29 50 21 78 -10 32 2 62 24 62 26 0 16 29 -12 36 -16 3 -56 20 -91 38 l-63 31 7 52 c3 29 3 64 0 78 -5 21 -11 24 -30 19 -14 -3 -27 -1 -31 7 -6 8 -4 10 4 5 7 -5 21 0 31 9 15 14 37 18 95 17 41 0 75 3 75 9 0 5 -7 9 -15 9 -8 0 -15 5 -15 10 0 6 -7 10 -15 10 -8 0 -15 -7 -15 -15 0 -8 -4 -15 -10 -15 -5 0 -10 8 -10 17 0 15 -2 14 -15 -3 -13 -17 -14 -17 -15 -1 0 9 -5 17 -11 17 -5 0 -7 -4 -4 -10 3 -6 2 -10 -4 -10 -5 0 -11 5 -13 12 -6 18 -402 -10 -433 -31 -5 -4 -26 -4 -45 0 -29 5 -31 7 -9 8 45 2 89 13 89 22 0 5 -140 9 -315 9 l-315 -1 0 -27 0 -27 112 0 c84 1 113 4 116 14 3 10 -4 12 -31 9 -20 -2 -33 0 -31 4 3 4 20 8 39 8 l34 0 3 -87 c3 -87 3 -88 18 -55 9 20 25 35 40 39 14 3 33 10 43 15 18 9 18 10 0 24 -14 11 -15 15 -5 22 7 5 23 7 36 5 13 -3 28 2 35 11 8 9 20 16 29 16 10 0 6 -7 -11 -20 -14 -11 -35 -20 -48 -20 -21 0 -21 -1 -6 -18 10 -10 17 -21 17 -24 0 -4 -23 -9 -50 -13 -47 -6 -52 -10 -70 -48 -11 -22 -20 -42 -20 -43 0 -1 14 -7 30 -14 17 -7 30 -17 30 -22 0 -7 -4 -7 -12 0 -7 5 -23 13 -35 16 -21 7 -22 4 -26 -66 -2 -51 -4 -37 -5 48 -3 157 -8 186 -36 183 -11 -1 -28 1 -37 5 -9 4 -32 3 -50 -2 -23 -7 -27 -10 -13 -11 17 -1 22 -9 27 -43 4 -26 1 -48 -6 -57 -9 -12 -9 -13 1 -7 9 5 12 -4 12 -33 0 -34 3 -41 19 -41 18 0 20 7 18 85 -1 47 1 85 6 85 4 0 7 -27 7 -60 0 -41 4 -60 13 -61 9 0 9 -2 0 -6 -8 -3 -13 -25 -13 -59 0 -31 -4 -53 -9 -50 -4 3 -6 17 -3 31 3 19 1 26 -9 25 -27 -4 -38 0 -43 18 -3 9 -4 2 -2 -16 1 -18 -1 -35 -6 -38 -5 -3 -6 -10 -3 -15 4 -5 -1 -9 -9 -9 -25 0 -65 22 -70 39 -3 9 -4 -1 -3 -21 2 -21 0 -35 -4 -30 -9 8 -17 75 -18 140 -1 56 -21 54 -21 -2 0 -25 -3 -47 -7 -49 -5 -3 -6 17 -5 44 l4 49 -49 1 c-51 1 -46 4 27 14 l45 5 -3 70 -4 70 -49 0 -49 0 0 -42 c0 -32 -3 -39 -10 -28 -5 8 -10 27 -10 43 0 25 -3 27 -44 27 l-45 0 -6 -57 c-9 -82 -16 -90 -10 -12 l5 66 -44 1 -45 2 -6 -57 c-8 -72 -13 -88 -14 -45 -1 17 -4 32 -8 32 -5 0 -8 -58 -8 -130 -1 -73 -5 -134 -11 -140 -7 -7 -9 2 -6 28 5 37 4 37 -14 17 -11 -12 -15 -15 -10 -7 6 9 6 16 -2 21 -6 3 -12 33 -14 66 -3 57 -4 60 -30 63 -22 3 -28 -1 -28 -15 0 -15 2 -16 10 -3 7 12 10 8 10 -15 1 -28 2 -29 10 -7 14 34 20 27 20 -23 0 -25 -4 -45 -10 -45 -5 0 -10 8 -11 18 0 13 -2 14 -6 2 -4 -8 -11 -19 -17 -25 -13 -12 -66 -15 -66 -3 0 4 11 8 25 8 24 0 25 2 27 78 0 42 1 83 1 90 -1 6 9 12 21 13 20 0 20 1 -3 10 -13 5 -46 6 -72 3 l-49 -7 0 -110 c0 -61 -3 -107 -7 -104 -3 4 -5 70 -4 147 l2 140 -71 0 -70 0 -1 -62 -1 -63 -8 55 c-5 30 -6 58 -4 62 3 5 -24 8 -60 8 -73 0 -72 1 -79 -85 -3 -27 -4 -20 -5 23 -1 34 -6 62 -12 62 -5 0 -10 -6 -11 -12 0 -10 -2 -10 -6 0 -3 7 -24 12 -54 12 l-49 0 -2 -57 -2 -58 -3 58 -4 57 -89 0 -90 0 -1 -27 -2 -28 -4 28 c-4 25 -7 27 -56 27 -29 0 -57 -4 -63 -8 -6 -4 -15 -41 -21 -82 l-10 -75 -2 77 -1 76 -71 4 c-39 2 -73 -1 -76 -6 -3 -4 -9 -2 -14 5 -6 10 -9 11 -9 2 0 -8 -12 -13 -27 -12 l-28 1 25 8 c19 6 9 8 -37 9 -44 1 -63 -3 -64 -11 0 -10 -2 -10 -6 0 -7 17 -183 17 -183 0 0 -9 -3 -9 -12 0 -16 16 -70 16 -86 0 -9 -9 -12 -9 -12 0 0 7 -11 12 -25 12 -15 0 -25 -5 -24 -12 1 -7 0 -31 -1 -53 -2 -41 -4 -38 -15 28 -5 33 -9 37 -35 37 -19 0 -33 -7 -40 -20 -8 -15 -8 -20 2 -20 10 0 10 -2 0 -9 -11 -7 -11 -9 2 -14 9 -4 15 -14 15 -24 -1 -17 -2 -17 -6 0 -5 20 -19 22 -26 5 -3 -7 -6 4 -6 25 -1 34 -4 38 -23 35 -19 -2 -24 -11 -28 -48 l-6 -45 -4 53 c-3 30 -1 54 5 56 6 2 -65 4 -157 4 -139 1 -168 -2 -168 -14 0 -8 -5 -14 -11 -14 -6 0 -9 7 -5 15 4 12 -5 15 -57 14 -34 0 -56 -3 -49 -6 6 -2 12 -14 12 -26 -1 -21 -2 -20 -21 6 -26 34 -64 36 -73 5 -8 -31 -7 -45 2 -32 5 8 12 6 24 -5 15 -15 9 -16 -78 -16 -77 -1 -90 1 -73 11 12 6 41 9 65 6 44 -5 44 -4 44 27 l0 31 -85 0 -85 0 -2 -62 -2 -63 -3 63 -4 62 -57 -2 c-35 -1 -45 -3 -24 -5 29 -4 32 -7 31 -36 -2 -30 -2 -31 -6 -4 -3 21 -10 27 -29 27 -21 0 -24 -4 -24 -40 0 -29 4 -40 15 -40 8 0 12 -6 9 -15 -5 -11 8 -15 63 -18 37 -1 -83 -3 -267 -4 -184 0 -317 3 -295 6 58 9 26 24 -38 19 -29 -3 -41 -3 -28 -1 19 4 22 9 19 34 -3 16 -1 29 4 29 4 0 8 -11 8 -25 0 -22 4 -25 40 -25 29 0 40 -4 40 -15 0 -12 14 -15 67 -15 36 0 63 3 59 7 -3 4 -30 6 -59 6 -31 0 -38 1 -17 3 62 7 80 14 80 29 0 8 -4 15 -10 15 -5 0 -10 17 -11 38 -1 33 -2 34 -9 12 -8 -24 -8 -24 -9 -2 -1 17 -7 22 -26 22 -20 0 -25 -5 -26 -27 l-2 -28 -4 29 c-4 22 -7 26 -14 15 -6 -10 -9 -10 -9 -1 0 9 -29 12 -110 12 -91 0 -110 3 -110 15 0 13 438 15 3885 15 l3885 0 -1 -117z m-6432 65 c-9 -8 -18 -32 -20 -58 l-4 -45 -1 51 c-2 54 2 64 27 64 13 0 12 -2 -2 -12z m480 -55 c-2 -16 -4 -5 -4 22 0 28 2 40 4 28 2 -13 2 -35 0 -50z m2750 46 c24 -11 43 -23 43 -25 0 -5 -61 20 -87 35 -32 19 0 11 44 -10z m640 -41 c-2 -13 -4 -3 -4 22 0 25 2 35 4 23 2 -13 2 -33 0 -45z m700 -5 c-2 -16 -4 -5 -4 22 0 28 2 40 4 28 2 -13 2 -35 0 -50z m23 -8 c-7 -38 -8 -36 -8 20 -1 40 2 53 7 40 5 -11 5 -38 1 -60z m-3903 -2 c-2 -16 -4 -5 -4 22 0 28 2 40 4 28 2 -13 2 -35 0 -50z m20 -5 c-2 -13 -4 -3 -4 22 0 25 2 35 4 23 2 -13 2 -33 0 -45z m1691 55 c-10 -2 -28 -2 -40 0 -13 2 -5 4 17 4 22 1 32 -1 23 -4z m-3721 -65 c-2 -13 -4 -3 -4 22 0 25 2 35 4 23 2 -13 2 -33 0 -45z m63 58 c0 -2 -11 -6 -25 -8 -14 -3 -25 -1 -25 3 0 5 11 9 25 9 14 0 25 -2 25 -4z m1197 -63 c-2 -16 -4 -5 -4 22 0 28 2 40 4 28 2 -13 2 -35 0 -50z m164 16 c-3 -48 -2 -51 17 -47 11 3 26 2 33 -3 9 -6 1 -9 -23 -9 l-38 0 0 50 c0 28 -4 50 -10 50 -5 0 -10 -15 -10 -34 0 -19 -4 -38 -10 -41 -6 -4 -10 10 -10 34 0 46 -17 56 -22 14 -3 -27 -4 -27 -9 5 l-6 32 46 0 46 0 -4 -51z m677 21 c2 -22 -2 -30 -14 -30 -11 0 -14 5 -10 16 3 9 6 22 6 30 0 27 16 14 18 -16z m410 23 c-13 -3 -18 -15 -18 -40 0 -34 1 -35 35 -31 19 2 35 0 35 -4 0 -4 -18 -8 -40 -8 -40 0 -40 0 -40 38 0 43 6 53 29 51 13 -1 13 -2 -1 -6z m-921 -55 c-2 -13 -4 -5 -4 17 -1 22 1 32 4 23 2 -10 2 -28 0 -40z m1241 45 c-25 -4 -28 -9 -28 -40 0 -34 1 -35 35 -31 19 2 35 1 35 -3 0 -4 12 -10 28 -12 49 -7 -71 -5 -133 3 -54 6 -56 7 -17 9 41 1 42 2 42 34 0 41 6 47 39 46 l26 -2 -27 -4z m2982 -20 c0 -58 -10 -73 -46 -73 -26 0 -34 4 -33 18 0 10 3 12 6 5 2 -7 16 -13 29 -13 21 0 24 4 24 40 0 33 -3 40 -19 40 -14 0 -21 -8 -24 -27 -4 -26 -4 -26 -6 5 -1 30 1 32 34 32 32 0 35 -3 35 -27z m-4786 2 c11 -8 17 -18 13 -21 -4 -4 -13 -1 -21 5 -8 7 -19 10 -24 7 -5 -3 -9 1 -9 9 0 19 16 19 41 0z m4304 -27 l-1 -43 -4 38 c-3 24 -9 37 -19 37 -16 0 -20 -55 -4 -63 6 -3 5 -4 -2 -3 -7 1 -14 19 -16 39 -3 34 -1 37 22 37 24 0 26 -3 24 -42z m959 -10 c-2 -13 -4 -5 -4 17 -1 22 1 32 4 23 2 -10 2 -28 0 -40z m46 45 c11 -21 17 -64 7 -58 -5 3 -10 -2 -11 -12 -1 -24 -17 23 -18 55 -1 21 13 30 22 15z m1114 -70 c-2 -16 -4 -3 -4 27 0 30 2 43 4 28 2 -16 2 -40 0 -55z m153 68 c0 -8 -130 -3 -139 5 -2 2 28 4 67 4 40 0 72 -4 72 -9z m-5664 -25 c1 -10 -3 -11 -22 -2 -20 9 -21 12 -6 17 19 7 25 4 28 -15z m481 -23 c-3 -10 -5 -2 -5 17 0 19 2 27 5 18 2 -10 2 -26 0 -35z m2343 12 c0 -32 -2 -35 -27 -34 -24 2 -25 2 -5 6 34 7 30 50 -5 56 -26 4 -26 4 5 6 30 1 32 -1 32 -34z m-2784 -41 c-4 -10 -20 -13 -53 -12 l-48 2 48 3 c47 4 47 4 48 41 2 32 3 33 6 9 3 -16 2 -35 -1 -43z m243 34 c-1 -17 -2 -19 -6 -5 -2 9 -11 17 -19 17 -8 0 -15 -8 -15 -17 -1 -17 -2 -17 -6 0 -6 24 -21 21 -26 -5 -4 -20 -4 -19 -6 5 -1 25 2 27 39 27 35 0 40 -3 39 -22z m2808 -25 c-3 -10 -5 -2 -5 17 0 19 2 27 5 18 2 -10 2 -26 0 -35z m61 16 c-6 -4 -20 -4 -32 -1 -18 5 -18 7 -3 10 9 2 17 8 17 13 0 5 6 4 14 -3 9 -8 10 -15 4 -19z m-1981 -41 c-2 -13 -4 -3 -4 22 0 25 2 35 4 23 2 -13 2 -33 0 -45z m-2081 37 c-11 -8 -25 -15 -30 -15 -6 0 -2 7 8 15 11 8 25 15 30 15 6 0 2 -7 -8 -15z m99 -23 c1 -12 -5 -28 -12 -34 -12 -10 -13 -7 -8 15 6 24 5 26 -11 20 -17 -6 -17 -5 -5 10 18 22 34 17 36 -11z m4474 -28 c1 -7 -5 -14 -12 -17 -9 -3 -11 6 -8 37 4 36 5 38 12 16 4 -14 7 -30 8 -36z m1416 29 c18 -12 17 -13 -16 -13 -27 0 -35 4 -36 19 -2 21 14 20 52 -6z m581 -19 c-4 -10 -20 -13 -58 -12 l-53 2 53 3 c49 4 52 6 53 31 1 18 3 21 6 9 3 -10 2 -25 -1 -33z m-6794 14 c-17 -17 -15 -38 3 -38 13 0 17 -6 14 -26 0 -4 5 -10 12 -15 10 -6 10 -11 -2 -25 -9 -11 -9 -15 -1 -10 12 7 16 -3 13 -36 -1 -10 4 -18 12 -18 8 0 20 -7 28 -16 10 -13 10 -17 -2 -25 -11 -7 -9 -9 9 -9 15 0 22 -6 22 -20 0 -31 1 -34 13 -50 6 -8 2 -6 -11 4 -12 11 -22 24 -22 31 0 7 -9 20 -20 30 -15 14 -17 21 -8 26 8 5 -1 14 -25 25 -28 14 -34 20 -26 31 9 10 7 13 -5 13 -11 0 -14 4 -10 12 8 12 13 60 6 53 -3 -2 -11 2 -18 10 -16 16 -3 65 18 65 9 0 9 -3 0 -12z m1421 -8 c5 -20 1 -20 -211 -18 l-217 2 204 5 c149 5 206 10 209 19 5 17 9 15 15 -8z m1191 12 c3 -5 -20 -9 -52 -9 l-57 0 45 7 c25 4 48 8 52 8 4 1 9 -2 12 -6z m-2714 -13 c10 -7 -69 -8 -255 -3 -148 3 -272 8 -274 10 -11 10 515 3 529 -7z m2260 6 c0 -8 -59 -35 -77 -35 -10 1 -1 7 20 15 21 7 41 16 44 19 8 7 13 8 13 1z m1839 -11 c2 -2 -16 -4 -42 -4 -25 0 -49 5 -52 10 -5 7 9 9 42 4 26 -3 50 -8 52 -10z m-4802 -76 c-2 -18 -4 -6 -4 27 0 33 2 48 4 33 2 -15 2 -42 0 -60z m2764 31 c-8 -38 -9 -40 -10 -12 -1 17 2 39 5 48 11 29 14 10 5 -36z m2334 42 c128 -2 138 -3 120 -17 -11 -8 -19 -20 -17 -25 1 -5 -62 -9 -150 -9 -103 0 -148 -4 -138 -10 12 -7 8 -10 -15 -10 -22 0 -26 3 -16 9 18 12 -8 19 -84 24 -27 2 50 4 172 5 135 1 224 6 228 12 4 7 -62 10 -189 10 -119 0 -196 4 -196 10 0 5 30 8 73 6 39 -2 135 -4 212 -5z m848 2 c-18 -2 -48 -2 -65 0 -18 2 -4 4 32 4 36 0 50 -2 33 -4z m-4630 -10 l-103 -4 0 -34 c0 -24 5 -35 15 -35 18 0 21 46 3 53 -7 3 -4 6 7 6 18 1 20 -4 17 -33 -4 -30 -8 -34 -38 -38 -23 -3 -31 -1 -24 6 16 16 12 66 -4 66 -8 0 -17 4 -20 8 -3 4 52 8 122 8 115 0 117 0 25 -3z m195 0 c-16 -2 -40 -2 -55 0 -16 2 -3 4 27 4 30 0 43 -2 28 -4z m105 -4 c-20 -6 -33 -16 -34 -27 0 -14 -2 -14 -6 -2 -3 8 -12 21 -21 28 -13 10 -7 12 39 11 51 -1 52 -1 22 -10z m986 -26 c-2 -31 -3 -33 -6 -10 -4 25 -8 27 -56 29 l-52 1 55 7 c30 4 56 7 58 8 1 1 1 -15 1 -35z m718 -15 c-2 -13 -4 -5 -4 17 -1 22 1 32 4 23 2 -10 2 -28 0 -40z m203 44 c0 -5 -9 -17 -19 -26 -20 -18 -61 -14 -61 5 0 6 -4 8 -9 4 -6 -3 -8 -14 -6 -25 5 -23 -8 -26 -25 -5 -13 15 -5 39 11 30 5 -4 12 1 15 9 4 11 19 16 50 16 24 0 44 -4 44 -8z m22 -22 c-9 -17 -25 -33 -35 -36 -9 -3 -15 -10 -12 -15 7 -11 -13 -11 -40 1 -18 8 -18 9 6 9 28 1 69 34 69 56 0 8 7 15 15 15 12 0 11 -5 -3 -30z m2283 20 c-4 -6 4 -9 17 -7 14 1 22 -3 21 -10 -2 -7 2 -13 9 -13 6 0 9 -2 6 -5 -3 -3 -22 2 -42 11 -25 12 -32 20 -24 26 17 10 20 10 13 -2z m1423 3 c-27 -2 -69 -2 -95 0 -27 2 -5 3 47 3 52 0 74 -1 48 -3z m-7008 -33 c5 0 11 6 13 13 3 6 6 2 6 -9 1 -17 -4 -20 -23 -17 -19 4 -22 9 -18 26 5 18 7 19 10 5 2 -10 7 -18 12 -18z m487 -37 c-2 -16 -4 -5 -4 22 0 28 2 40 4 28 2 -13 2 -35 0 -50z m1680 -30 c-2 -21 -4 -6 -4 32 0 39 2 55 4 38 2 -18 2 -50 0 -70z m441 90 c-10 -2 -26 -2 -35 0 -10 3 -2 5 17 5 19 0 27 -2 18 -5z m-2651 -55 c-2 -13 -4 -5 -4 17 -1 22 1 32 4 23 2 -10 2 -28 0 -40z m453 25 c0 -16 -4 -23 -8 -17 -4 7 -16 14 -27 17 -18 4 -17 5 3 6 13 0 20 6 17 11 -3 6 -1 10 4 10 6 0 11 -12 11 -27z m819 -10 c0 -34 -1 -36 -10 -15 -5 13 -7 28 -3 33 3 5 -6 9 -19 9 -21 0 -23 -4 -21 -32 l3 -33 -7 30 c-6 23 -13 30 -32 30 -21 0 -25 -4 -23 -25 2 -24 2 -24 -8 3 -6 15 -18 27 -28 27 -14 0 -17 -7 -13 -32 6 -42 -3 -34 -11 10 l-6 32 89 0 90 0 -1 -37z m60 -10 c-1 -53 -6 -49 -11 10 -2 20 0 37 4 37 4 0 8 -21 7 -47z m1580 15 c0 -18 -3 -26 -6 -18 -4 8 -13 21 -22 28 -14 11 -14 11 2 6 9 -3 17 -1 17 5 0 6 2 11 5 11 3 0 5 -15 4 -32z m2277 25 c-4 -4 -31 -10 -59 -13 l-52 -5 -6 -42 -5 -42 35 -4 c20 -2 5 -4 -34 -4 -45 0 -59 2 -40 6 28 6 30 9 29 53 l0 47 55 4 c31 2 62 4 70 5 8 1 11 -1 7 -5z m-4362 -30 c-2 -49 -4 -53 -21 -53 -17 1 -17 1 -1 11 10 5 15 16 12 24 -6 14 1 45 9 45 1 0 2 -12 1 -27z m4776 11 c0 -2 -28 -4 -62 -3 -40 1 -54 3 -39 8 23 6 101 3 101 -5z m404 -6 c25 -12 42 -26 39 -31 -4 -6 1 -8 11 -4 9 4 15 3 11 -2 -3 -6 3 -15 12 -21 12 -8 13 -10 3 -7 -13 4 -15 -2 -12 -29 2 -19 1 -45 -2 -60 -6 -22 -11 -25 -44 -22 l-37 3 -1 65 0 65 3 -62 c4 -64 10 -71 47 -57 12 4 16 20 16 55 0 57 -19 67 -21 12 l-2 -38 -6 40 c-3 22 -2 42 3 44 5 2 -16 19 -45 37 -61 38 -44 46 25 12z m-3949 2 c17 -4 -37 -7 -120 -7 -122 1 -135 2 -70 7 111 9 155 9 190 0z m242 -52 c-2 -13 -4 -3 -4 22 0 25 2 35 4 23 2 -13 2 -33 0 -45z m3098 35 c0 -10 -4 -24 -9 -31 -4 -6 -5 -16 -2 -21 4 -5 1 -11 -5 -13 -9 -3 -9 -9 -1 -24 9 -16 6 -21 -15 -31 -24 -12 -25 -11 -9 6 9 10 14 25 10 35 -3 9 0 26 8 39 8 12 13 32 12 44 -1 12 2 21 6 18 4 -2 6 -12 5 -22z m-3620 11 c-6 -2 -10 -19 -9 -37 1 -23 0 -25 -4 -7 -4 23 -5 24 -12 5 -7 -17 -9 -17 -9 -2 -1 10 -9 17 -21 17 -28 0 -28 -47 0 -53 17 -4 16 -4 -2 -3 -18 1 -24 8 -26 31 -2 26 2 33 25 42 26 10 81 17 58 7z m886 -36 c-4 -35 -6 -38 -9 -15 -3 26 3 57 10 57 2 0 1 -19 -1 -42z m56 -70 c-2 -24 -4 -7 -4 37 0 44 2 63 4 43 2 -21 2 -57 0 -80z m4776 105 c-13 -2 -35 -2 -50 0 -16 2 -5 4 22 4 28 0 40 -2 28 -4z m-6606 -14 c-16 -9 -16 -11 -1 -27 15 -15 15 -16 -2 -23 -11 -4 -14 -8 -8 -8 15 -1 13 -32 -3 -48 -6 -7 -20 -13 -29 -13 -16 0 -16 1 2 15 11 8 14 14 6 15 -9 0 -8 7 5 27 14 20 15 27 5 31 -10 3 -9 9 4 23 9 10 22 19 28 19 6 0 3 -5 -7 -11z m751 4 c-10 -2 -26 -2 -35 0 -10 3 -2 5 17 5 19 0 27 -2 18 -5z m447 -59 c-23 -61 -28 -51 -8 16 9 30 18 49 21 42 2 -8 -4 -34 -13 -58z m2808 50 c-3 -9 -9 -11 -12 -6 -3 5 -13 12 -21 15 -9 3 -4 6 12 6 21 1 26 -3 21 -15z m92 -34 c-24 -52 -30 -46 -8 8 9 23 18 40 21 37 3 -3 -3 -23 -13 -45z m1973 43 c-27 -2 -69 -2 -95 0 -27 2 -5 3 47 3 52 0 74 -1 48 -3z m-2126 -33 c3 -16 1 -30 -4 -30 -4 0 -8 14 -8 30 0 17 2 30 4 30 2 0 6 -13 8 -30z m1498 -60 l-11 -25 6 25 c2 14 6 41 7 60 l1 35 4 -35 c2 -20 -1 -47 -7 -60z m1045 76 c17 -1 -125 -3 -315 -4 -190 0 -363 2 -384 6 -37 7 635 5 699 -2z m-5468 -43 c-3 -10 -5 -2 -5 17 0 19 2 27 5 18 2 -10 2 -26 0 -35z m73 12 c0 -19 -4 -35 -8 -35 -4 0 -6 16 -4 35 2 19 6 35 8 35 2 0 4 -16 4 -35z m-580 17 c0 -11 -50 -57 -77 -71 -12 -6 -29 -8 -38 -4 -14 5 -10 9 15 20 18 7 35 11 38 8 6 -6 42 25 42 36 0 4 -8 10 -17 12 -11 3 -7 5 10 6 15 0 27 -3 27 -7z m1623 -14 c7 -24 -5 -48 -25 -48 -13 0 -18 5 -15 14 3 8 1 17 -6 20 -7 3 -2 3 11 0 12 -3 22 -1 22 5 0 5 -8 12 -17 14 -14 4 -13 5 4 6 12 0 23 -5 26 -11z m407 3 c0 -16 -261 -28 -310 -13 -15 4 25 9 105 12 72 3 147 7 168 8 20 1 37 -2 37 -7z m3973 2 c-83 -2 -223 -2 -310 0 -87 1 -18 3 152 3 171 0 242 -2 158 -3z m-6253 -15 c0 -5 -11 -8 -25 -8 -14 0 -25 3 -25 8 0 4 11 7 25 7 14 0 25 -3 25 -7z m2628 -19 c-7 -4 -6 -13 1 -28 10 -17 9 -21 -4 -21 -8 0 -14 3 -13 8 1 4 -4 20 -10 35 -16 37 -16 37 12 24 14 -7 20 -15 14 -18z m3000 24 c-15 -2 -42 -2 -60 0 -18 2 -6 4 27 4 33 0 48 -2 33 -4z m-5508 -7 c0 -9 -39 -13 -51 -5 -10 6 -4 9 19 9 17 0 32 -2 32 -4z m6173 -3 c-40 -2 -107 -2 -150 0 -43 1 -10 3 72 3 83 0 118 -2 78 -3z m-6326 -62 l16 -24 -29 21 c-53 40 -64 49 -64 56 0 13 61 -29 77 -53z m-561 20 c1 -23 -13 -25 -56 -10 -23 8 -22 8 8 5 17 -1 32 1 32 6 0 8 -92 12 -245 10 -66 0 -73 1 -40 8 22 4 99 7 170 5 124 -3 130 -4 131 -24z m2644 20 c0 -5 7 -17 16 -25 8 -9 11 -16 5 -16 -7 0 -8 -24 -5 -67 8 -103 18 -108 24 -13 l6 85 2 -97 c2 -96 1 -98 -20 -98 -14 0 -18 3 -11 8 8 5 8 12 -3 27 -15 20 -15 20 -13 0 1 -11 1 -36 -1 -55 -2 -20 -6 -1 -9 45 -3 44 -2 104 3 133 6 38 5 57 -4 67 -9 11 -9 15 -1 15 6 0 11 -4 11 -9z m130 1 c0 -4 -19 -6 -42 -4 -71 5 -77 10 -15 11 31 0 57 -2 57 -7z m4220 -8 c0 -8 4 -13 9 -10 5 4 4 -5 -2 -19 l-12 -25 -3 30 -3 30 -247 -3 c-159 -3 -199 -2 -112 2 277 14 370 13 370 -5z m-7392 -1 c-32 -2 -86 -2 -120 0 -35 2 -9 3 57 3 66 0 94 -1 63 -3z m1023 -33 c13 0 19 7 20 23 1 21 1 21 8 -3 4 -14 12 -25 19 -24 29 2 33 5 27 14 -4 6 1 7 11 3 13 -5 10 -10 -17 -24 -36 -19 -65 -26 -39 -9 11 7 5 10 -22 10 -35 0 -38 2 -37 28 2 23 2 24 6 5 3 -15 12 -23 24 -23z m579 25 c-14 -8 -32 -14 -40 -14 -8 0 -1 6 15 14 40 18 57 18 25 0z m1614 0 c11 -8 15 -15 10 -15 -6 0 -19 7 -30 15 -10 8 -14 14 -9 14 6 0 19 -6 29 -14z m48 -152 c-9 -96 -9 -97 -11 -30 -1 56 -4 67 -18 68 -17 1 -17 2 0 6 14 4 17 16 18 66 1 60 1 61 11 25 6 -24 6 -72 0 -135z m3016 122 c-2 -12 -7 -7 -15 16 -12 30 -11 32 3 17 9 -8 14 -23 12 -33z m-5648 10 c-10 -12 -10 -15 5 -15 11 0 15 -5 12 -15 -4 -8 -1 -17 5 -21 6 -4 8 -3 4 4 -3 6 -2 13 4 17 5 3 10 -3 10 -14 0 -12 -5 -21 -11 -21 -5 0 -7 -5 -4 -10 5 -8 11 -7 21 1 12 10 13 9 8 -5 -4 -10 -13 -15 -23 -12 -11 4 -10 2 3 -9 11 -8 16 -15 11 -15 -5 0 -19 10 -33 23 -23 22 -24 22 -38 3 -7 -11 -16 -17 -19 -14 -4 3 5 15 19 26 25 19 35 42 18 42 -4 0 -13 -5 -20 -12 -9 -9 -12 -9 -12 -1 0 7 5 15 11 19 8 4 8 9 0 17 -8 8 -5 15 11 23 28 15 35 10 18 -11z m2343 -66 c22 -2 22 -2 -1 -6 -23 -5 -27 -32 -9 -60 5 -7 4 -13 -2 -13 -5 0 -12 -10 -14 -22 -2 -13 -4 27 -4 87 0 61 2 89 4 63 4 -41 7 -48 26 -49z m3344 44 c-3 -10 -5 -2 -5 17 0 19 2 27 5 18 2 -10 2 -26 0 -35z m-6435 30 c-40 -2 -103 -2 -140 0 -37 2 -4 3 73 3 77 0 107 -2 67 -3z m2528 -2 c0 -14 -85 -43 -111 -38 -21 4 -20 5 6 6 17 1 46 10 65 21 42 23 40 22 40 11z m751 -126 l-9 -60 -1 91 c0 50 2 94 7 98 11 12 13 -62 3 -129z m1426 121 c-4 -10 2 -16 16 -19 19 -3 18 -4 -3 -3 -14 0 -31 -4 -39 -8 -10 -6 -12 -5 -7 2 4 7 3 12 -3 12 -5 0 -13 -4 -16 -10 -8 -14 -25 -13 -25 2 0 6 3 9 6 5 3 -3 20 3 37 14 38 23 41 23 34 5z m205 4 c-12 -5 -29 -7 -37 -4 -11 5 -15 -1 -16 -22 l-2 -29 -4 28 c-5 35 -33 36 -33 2 0 -22 -2 -24 -14 -13 -8 7 -10 15 -5 16 17 7 9 21 -13 25 -13 2 15 5 62 5 60 1 78 -2 62 -8z m-1982 -35 c5 3 12 0 16 -6 4 -8 3 -9 -4 -5 -7 4 -12 3 -12 -2 0 -11 60 -72 72 -72 4 0 13 -10 19 -22 10 -20 7 -19 -22 7 -82 72 -119 110 -119 122 0 8 8 5 20 -7 12 -12 25 -18 30 -15z m330 -49 c0 -47 -5 -88 -10 -91 -16 -10 -1 -25 18 -19 15 5 15 4 -1 -6 -10 -6 -14 -16 -10 -23 4 -7 7 -25 6 -42 -1 -16 1 -22 3 -12 3 10 17 22 30 28 33 12 84 12 84 -1 0 -5 -20 -10 -45 -10 -38 0 -45 -3 -45 -20 0 -33 -35 -60 -78 -60 -43 0 -76 27 -66 53 4 12 -2 17 -28 20 l-33 5 35 -2 c29 -1 35 -5 35 -24 0 -24 20 -42 45 -41 10 0 8 3 -4 8 -18 7 -16 9 12 19 39 13 51 38 29 59 -14 14 -18 14 -32 3 -10 -8 -15 -23 -12 -37 2 -13 3 -23 1 -23 -1 0 -9 -3 -18 -6 -13 -5 -15 0 -10 27 9 44 31 69 61 69 17 0 22 4 16 13 -19 31 -20 152 0 176 10 12 9 13 -2 6 -10 -5 -12 -4 -7 3 18 29 26 6 26 -72z m310 70 c0 -9 -81 -88 -86 -84 -3 3 2 13 11 21 8 9 14 22 13 29 -2 6 2 12 9 13 7 0 18 6 25 13 11 11 28 16 28 8z m116 -5 c-37 -8 -42 -21 -16 -48 22 -24 35 -98 19 -109 -6 -3 -14 -16 -19 -28 l-9 -21 0 22 c-1 12 6 26 14 30 13 8 13 12 0 37 -9 16 -14 34 -13 40 1 6 -4 21 -11 34 -16 30 1 52 38 51 26 -1 26 -1 -3 -8z m3711 2 c-27 -4 -29 -7 -25 -44 2 -21 0 -39 -4 -39 -5 0 -8 18 -8 40 0 33 -3 40 -20 40 -16 0 -20 -7 -22 -32 l-1 -33 -4 33 c-5 34 -7 35 -76 26 -46 -7 -46 -7 -49 -48 l-3 -41 -50 -1 c-45 -1 -46 -1 -7 3 44 4 49 12 36 61 -5 17 -14 22 -38 22 -31 0 -33 -3 -43 -47 l-10 -48 -1 40 c-1 22 2 45 6 52 4 7 37 14 72 16 92 5 281 5 247 0z m-8006 -108 c48 -31 113 -55 159 -59 20 -1 101 -29 180 -61 220 -87 326 -150 427 -253 82 -84 153 -173 147 -184 -3 -4 -1 -8 5 -8 34 0 91 -195 91 -309 -1 -129 -30 -214 -102 -296 -69 -78 -197 -127 -365 -140 -77 -6 -93 -5 -120 12 -41 25 -30 38 32 40 76 2 204 31 261 59 112 53 165 142 172 287 8 161 -27 266 -132 400 -126 162 -215 224 -506 350 -89 39 -147 68 -293 149 -48 27 -84 69 -80 91 4 21 6 21 45 -16 22 -21 57 -49 79 -62z m2594 95 c11 -5 -36 -6 -105 -3 -69 3 -127 8 -130 10 -8 7 215 1 235 -7z m325 2 c0 -4 -4 -12 -9 -17 -5 -6 -11 -23 -13 -40 l-4 -30 -9 29 c-6 23 -4 32 9 42 16 11 16 13 -1 17 -14 4 -14 5 5 6 12 0 22 -3 22 -7z m4487 1 c-20 -2 -52 -2 -70 0 -17 2 0 4 38 4 39 0 53 -2 32 -4z m-4646 -30 l24 -28 -30 25 c-16 14 -32 26 -34 28 -2 1 0 2 6 2 5 0 20 -12 34 -27z m483 20 l-50 -4 6 -49 c6 -48 6 -48 -29 -64 -30 -14 -33 -14 -17 -1 11 8 24 15 28 15 10 0 -1 81 -12 93 -15 17 -50 -3 -50 -28 0 -13 -4 -27 -10 -30 -6 -4 -10 6 -10 24 0 42 21 51 115 49 57 -1 65 -3 29 -5z m4354 -55 l-2 -38 -68 0 c-63 0 -68 2 -74 24 -3 13 -4 35 -1 47 3 16 5 12 6 -13 l1 -38 60 0 60 0 0 43 c0 31 3 38 10 27 6 -8 9 -32 8 -52z m461 -36 c-2 -96 -6 -86 -11 25 -2 39 0 69 4 67 4 -3 7 -44 7 -92z m-5079 26 c0 -38 -27 -68 -60 -68 -8 1 -1 7 17 15 32 13 32 15 27 67 -4 39 -3 49 5 38 6 -8 11 -32 11 -52z m-1970 42 c0 -5 7 -10 15 -10 8 0 15 5 15 10 0 6 8 10 17 10 14 0 13 -3 -5 -21 l-22 -20 -27 20 c-19 15 -21 21 -9 21 9 0 16 -4 16 -10z m3013 -10 c3 -11 1 -23 -4 -26 -5 -3 -9 6 -9 20 0 31 6 34 13 6z m2842 13 c-16 -3 -37 -10 -45 -16 -13 -10 -13 -10 -1 6 8 10 25 16 45 16 l31 -2 -30 -4z m63 -10 c-2 -12 -14 -19 -38 -21 -36 -4 -85 -37 -162 -110 -26 -25 -46 -38 -44 -30 1 9 17 28 35 44 30 25 32 29 15 36 -17 7 -16 8 3 4 14 -2 30 5 44 20 12 13 28 24 36 24 7 0 13 5 13 10 0 6 21 10 46 10 37 0 45 3 40 15 -3 8 -1 15 5 15 6 0 9 -8 7 -17z m132 9 c0 -5 -13 -7 -30 -4 -16 2 -30 6 -30 8 0 2 14 4 30 4 17 0 30 -4 30 -8z m-3721 -4 c-2 -2 -17 -14 -34 -28 l-30 -25 24 28 c14 15 29 27 34 27 6 0 8 -1 6 -2z m3199 -22 c-14 -8 -13 -12 7 -28 13 -10 42 -42 66 -70 40 -50 38 -49 -32 18 -41 40 -81 74 -89 77 -8 3 0 6 18 6 22 1 31 5 26 13 -5 7 -3 8 6 3 11 -7 11 -10 -2 -19z m849 -58 c-2 -18 -4 -6 -4 27 0 33 2 48 4 33 2 -15 2 -42 0 -60z m-3955 33 c-4 -11 -7 -10 -13 5 -12 29 -10 36 5 22 7 -7 11 -19 8 -27z m138 -53 c52 -51 75 -77 50 -59 -25 19 -66 55 -92 80 -47 44 -48 45 -48 19 0 -18 -6 -27 -22 -31 -29 -8 -36 -1 -8 8 17 5 20 12 15 32 -4 16 -2 22 5 18 5 -3 10 -2 10 4 0 5 -12 12 -27 14 -27 4 -27 4 -3 5 19 1 48 -21 120 -90z m648 85 c-16 -2 -28 -9 -28 -14 0 -6 5 -7 10 -4 6 4 10 -8 11 -27 l1 -33 7 29 c3 16 13 31 21 33 12 4 13 3 1 -5 -8 -6 -12 -20 -9 -37 5 -24 3 -26 -18 -21 -13 4 -24 2 -24 -3 0 -5 8 -12 18 -14 16 -4 16 -5 -1 -6 -22 -1 -34 28 -16 40 11 6 11 11 1 21 -9 9 -19 6 -44 -18 -18 -17 -55 -47 -83 -69 -38 -29 -30 -19 35 47 68 67 91 84 115 85 29 0 29 0 3 -4z m-2997 -30 l24 -27 -32 23 c-33 23 -40 31 -25 31 5 0 19 -12 33 -27z m5463 21 c11 -4 16 -19 16 -45 0 -35 -3 -39 -25 -39 -22 0 -25 4 -25 38 0 49 6 57 34 46z m-2632 -55 c-18 -17 -32 -28 -32 -23 0 11 53 63 59 58 3 -2 -10 -18 -27 -35z m1855 -10 c-15 -38 -21 -29 -12 17 4 25 9 33 15 25 4 -7 3 -26 -3 -42z m-2812 1 c-11 -5 -15 -9 -8 -9 21 -2 73 -53 93 -90 19 -38 40 -160 40 -233 0 -35 7 -48 46 -90 49 -53 53 -72 7 -41 -15 11 -33 23 -39 26 -7 4 -6 -25 4 -91 23 -156 25 -147 -30 -146 -63 0 -109 37 -166 132 -49 81 -95 121 -121 105 -17 -11 -20 -69 -11 -183 l5 -55 -30 3 c-16 2 -46 14 -66 27 -46 30 -115 133 -124 184 -7 45 7 81 32 81 27 0 77 -40 111 -89 l32 -45 0 45 c0 88 48 101 115 32 25 -26 32 -29 28 -15 -2 11 0 29 6 41 22 41 97 19 145 -41 l26 -33 0 48 c0 26 -4 47 -8 47 -15 0 -145 134 -174 180 -78 123 -53 221 56 219 38 0 46 -3 31 -9z m376 -73 c-6 -16 -18 -27 -28 -27 -17 1 -17 1 0 14 22 17 31 56 12 56 -7 0 -16 -6 -18 -12 -3 -8 -6 -7 -6 4 -1 22 43 29 47 7 2 -8 -2 -27 -7 -42z m2409 -17 c4 0 11 6 13 13 3 6 6 0 6 -15 1 -39 -16 -43 -34 -8 -10 20 -13 39 -8 53 7 20 8 19 11 -10 2 -18 7 -33 12 -33z m-1675 41 c-3 -5 3 -12 12 -14 14 -4 13 -5 -4 -6 -14 -1 -23 5 -23 14 0 8 5 15 11 15 5 0 8 -4 4 -9z m3861 -43 c-19 -27 -21 -19 -4 18 7 14 14 21 16 15 2 -6 -4 -21 -12 -33z m-84 22 c-44 -10 -188 -14 -347 -10 -117 4 -108 5 95 10 124 3 239 6 255 7 l30 1 -33 -8z m-3752 -20 c0 -5 -7 -10 -15 -10 -8 0 -15 5 -15 10 0 6 7 10 15 10 8 0 15 -4 15 -10z m65 -66 c19 -10 32 -20 30 -23 -3 -2 -21 4 -40 15 -23 12 -35 25 -34 39 1 15 2 16 6 4 2 -9 19 -25 38 -35z m3700 37 c22 -5 -96 -6 -265 -3 -168 2 -307 6 -309 8 -9 8 536 2 574 -5z m-4315 -76 l-7 -60 -2 70 c0 42 3 65 8 60 5 -6 6 -36 1 -70z m305 -69 c0 -80 -4 -148 -8 -152 -4 -4 -7 5 -7 19 0 19 -5 27 -17 28 -14 0 -13 2 5 9 33 14 27 30 -13 30 l-35 0 0 -61 0 -61 33 4 c27 2 31 0 29 -17 -5 -26 -12 -33 -12 -12 0 10 -7 17 -15 17 -8 0 -15 -4 -15 -10 0 -5 -10 -15 -22 -21 -23 -12 -23 -12 -4 10 11 11 14 21 8 21 -6 0 -14 -4 -17 -10 -3 -5 -16 -15 -28 -21 -17 -9 -20 -9 -11 1 7 7 11 36 9 68 -2 48 -2 51 4 14 9 -60 25 -57 29 6 2 42 0 52 -13 52 -9 0 -14 4 -11 8 3 5 -1 9 -9 9 -11 0 -15 -15 -17 -56 l-2 -56 -3 48 c-3 27 -9 47 -16 47 -7 0 -6 4 3 10 12 8 11 10 -7 10 -12 0 -24 -4 -28 -10 -3 -5 -12 -7 -20 -3 -9 3 -22 0 -30 -7 -8 -6 -22 -10 -32 -7 -14 4 -13 5 5 6 12 0 22 6 22 11 0 6 -10 10 -22 11 -22 1 -22 1 2 8 l25 8 -25 5 c-14 3 2 5 35 5 33 -1 96 0 140 1 l80 2 -3 75 c-4 65 0 105 10 105 2 0 3 -65 3 -144z m240 109 c0 -14 -3 -25 -7 -25 -5 0 -8 11 -8 25 0 14 3 25 8 25 4 0 7 -11 7 -25z m167 -63 c0 -9 2 -21 3 -27 2 -5 3 -24 4 -42 1 -21 7 -33 19 -36 15 -4 15 -5 0 -6 -22 -1 -25 5 -32 64 -3 28 -13 55 -21 61 -22 16 -18 26 5 14 11 -6 21 -18 22 -28z m-1938 -193 l-21 -171 28 -86 c37 -118 59 -229 59 -302 0 -52 -4 -65 -25 -86 -26 -26 -46 -23 -75 11 -16 19 -34 261 -26 365 4 61 1 83 -15 119 -24 54 -24 58 0 37 23 -21 22 -24 42 144 10 87 28 140 47 140 4 0 -2 -77 -14 -171z m183 139 c-4 -18 -14 -96 -23 -174 -17 -139 -17 -141 4 -205 58 -177 81 -316 62 -374 -14 -42 -41 -60 -70 -45 -39 21 -44 47 -48 270 -3 163 -7 220 -18 237 -8 12 -14 30 -14 40 1 17 2 17 15 -1 8 -11 16 -18 19 -15 2 2 9 56 16 119 12 118 30 180 51 180 7 0 9 -11 6 -32z m2262 4 c-7 -3 -17 -10 -21 -16 -5 -7 -8 -5 -8 5 0 22 9 29 28 21 13 -5 14 -6 1 -10z m-3615 -171 c-14 -116 -14 -135 -1 -149 29 -33 79 -145 98 -220 26 -104 25 -175 -3 -202 -25 -23 -29 -24 -63 -8 -15 7 -36 33 -52 67 -24 49 -28 69 -31 182 l-4 127 -27 5 c-14 3 -50 29 -79 58 -85 84 -116 165 -72 189 30 16 76 -9 141 -74 l56 -58 12 87 c12 85 27 142 36 133 2 -2 -3 -64 -11 -137z m3576 90 c-6 -12 -17 -21 -25 -21 -8 0 -22 -14 -30 -30 l-16 -31 -18 23 -19 22 -6 -30 c-5 -21 -13 -30 -29 -31 l-22 -1 23 15 c13 9 22 26 22 41 l0 25 25 -23 25 -23 6 32 c6 30 24 54 24 32 0 -6 7 -11 15 -11 9 0 18 13 22 33 4 19 9 25 11 15 2 -9 -2 -26 -8 -37z m-361 -34 c7 -17 7 -25 1 -22 -6 4 -10 13 -10 21 0 8 -11 19 -25 24 -14 5 -25 14 -25 19 0 20 50 -15 59 -42z m-794 -87 c17 0 25 6 26 18 1 16 2 16 6 -1 9 -33 28 -11 34 39 l6 49 1 -42 c2 -54 -6 -73 -30 -73 -12 0 -17 -4 -12 -12 6 -10 4 -10 -7 0 -7 6 -24 12 -38 12 -26 0 -26 0 -21 72 l5 73 3 -67 c3 -65 4 -68 27 -68z m-2161 80 c36 -13 126 -103 126 -125 0 -13 -12 -6 -50 29 -28 26 -67 54 -87 62 -32 14 -37 14 -51 0 -14 -14 -11 -20 32 -61 51 -49 76 -97 76 -144 0 -52 -66 -57 -115 -8 -37 37 -55 89 -55 159 0 39 4 50 31 72 33 28 53 32 93 16z m503 -32 c66 -106 118 -262 92 -279 -11 -6 -17 4 -27 44 -8 29 -31 90 -53 137 -48 101 -52 98 -76 -49 -14 -87 -19 -101 -35 -101 -14 0 -18 5 -14 18 3 9 15 71 27 137 11 66 23 123 26 127 11 19 35 5 60 -34z m240 5 c-4 -21 -9 -91 -13 -155 -5 -85 -10 -118 -20 -118 -19 0 -20 10 -11 153 8 149 10 157 33 157 14 0 15 -7 11 -37z m1236 -32 c70 -73 76 -101 7 -37 -41 39 -102 76 -124 76 -2 0 -11 -7 -20 -15 -13 -14 -10 -20 30 -57 104 -96 113 -200 16 -185 -63 10 -102 81 -102 184 0 72 36 107 100 99 26 -4 49 -20 93 -65z m1173 31 c1 -7 0 -8 -2 -3 -3 5 -15 7 -27 4 -18 -4 -19 -3 -7 6 18 13 33 10 36 -7z m-5373 -8 c63 -32 129 -90 167 -146 l38 -57 3 79 c4 66 8 82 28 104 51 54 107 16 141 -93 29 -93 26 -114 -21 -149 -28 -21 -131 -43 -146 -31 -7 6 -11 15 -8 19 3 4 -2 14 -11 21 -8 7 -24 29 -34 48 -28 55 -88 120 -131 141 -139 71 -205 -57 -148 -287 12 -47 27 -100 34 -117 35 -83 123 -163 207 -188 44 -13 48 -24 13 -40 -66 -30 -200 76 -260 204 -74 162 -83 371 -19 455 41 54 89 66 147 37z m832 0 c8 -9 25 -35 37 -58 17 -32 23 -37 25 -21 11 60 14 65 38 65 35 0 72 -19 91 -47 23 -36 10 -40 -30 -9 -19 14 -39 26 -45 26 -17 0 -24 -46 -19 -135 3 -58 1 -86 -7 -89 -21 -8 -32 8 -38 58 -7 51 -55 158 -72 160 -6 1 -11 -54 -13 -141 -2 -137 -3 -143 -23 -143 -20 0 -21 4 -17 165 2 134 6 168 18 175 22 14 36 12 55 -6z m300 8 c6 -4 11 -38 13 -75 2 -44 10 -83 22 -107 20 -39 67 -80 92 -80 8 0 23 -7 34 -15 18 -13 16 -14 -24 -15 -49 0 -74 11 -114 48 l-28 26 0 -31 c0 -45 -17 -83 -36 -83 -13 0 -15 6 -10 33 4 17 9 88 12 157 7 155 9 164 39 142z m-543 -11 c35 -13 128 -110 128 -133 0 -16 -11 -10 -57 32 -57 52 -88 70 -124 70 -30 0 -23 -22 22 -65 74 -73 102 -162 58 -186 -27 -14 -81 -4 -102 19 -32 35 -57 106 -57 164 0 51 3 59 31 82 32 27 62 32 101 17z m3920 -44 c-7 -8 -8 -18 -4 -23 4 -4 0 -3 -9 4 -14 10 -18 10 -23 -3 -3 -8 -16 -15 -28 -14 l-23 0 23 9 c12 5 25 16 28 24 3 8 12 12 20 9 8 -3 14 1 14 8 0 7 3 9 6 6 4 -4 2 -13 -4 -20z m63 -68 c-49 -4 -119 -7 -155 -6 l-65 1 70 6 c39 4 108 7 155 7 l85 0 -90 -8z m74 -13 c-10 -9 -69 -36 -69 -32 0 7 52 35 64 36 5 0 7 -2 5 -4z m-234 -100 c1 -28 -21 -52 -29 -31 -3 8 -1 17 4 20 6 4 10 16 10 27 0 29 13 14 15 -16z m209 23 c14 12 16 10 16 -7 0 -12 -5 -24 -12 -28 -7 -5 -8 -3 -3 6 5 8 3 11 -6 8 -8 -3 -13 -11 -11 -17 1 -6 -5 -11 -14 -11 -9 0 -12 5 -8 12 5 8 2 9 -9 5 -11 -4 -17 -1 -17 8 0 8 7 15 15 15 8 0 15 6 15 13 0 8 3 8 9 -2 8 -12 12 -12 25 -2z m-149 -18 c-3 -5 3 -12 12 -14 15 -4 15 -5 2 -6 -9 0 -22 6 -29 14 -10 12 -9 15 4 15 10 0 15 -4 11 -9z m75 -11 c0 -5 -7 -10 -15 -10 -8 0 -15 5 -15 10 0 6 7 10 15 10 8 0 15 -4 15 -10z m-49 -67 l-5 -48 -7 35 c-6 26 -7 22 -3 -17 2 -28 0 -54 -5 -57 -5 -3 -8 2 -7 12 0 10 -6 17 -15 16 -9 -1 -16 5 -16 12 0 8 4 14 8 14 4 0 9 15 11 34 2 19 1 33 -2 31 -3 -2 -12 0 -20 6 -11 6 -3 9 25 9 l40 0 -4 -47z m-84 -40 c-2 -16 -4 -5 -4 22 0 28 2 40 4 28 2 -13 2 -35 0 -50z m132 18 l-2 -36 -6 35 -7 35 -6 -30 c-5 -23 -1 -34 18 -52 14 -13 29 -23 35 -23 5 0 10 26 11 58 1 52 2 53 5 13 5 -52 -4 -94 -17 -86 -5 3 -14 -4 -20 -15 -12 -22 -35 -26 -46 -8 -4 7 -3 8 5 4 12 -8 41 10 41 25 0 5 -8 5 -17 2 -16 -6 -16 -5 -4 10 11 15 11 17 -2 17 -18 0 -27 21 -27 65 0 28 3 32 20 28 16 -4 20 -13 19 -42z m24 17 c-8 -46 -13 -48 -13 -5 0 21 4 37 10 37 5 0 7 -14 3 -32z m-1628 -48 c14 -15 16 -23 7 -32 -15 -15 -42 7 -42 33 0 25 12 24 35 -1z m1499 -59 c14 -12 22 -12 37 -3 17 11 19 9 19 -17 0 -17 -4 -32 -9 -35 -4 -3 -6 5 -4 18 4 21 2 23 -21 19 -18 -4 -28 0 -32 11 -3 9 -10 16 -15 16 -4 0 -5 -10 0 -22 5 -13 15 -23 22 -23 16 0 42 -43 35 -59 -2 -6 -5 -3 -5 7 -1 9 -8 17 -16 17 -8 0 -15 4 -15 9 0 5 -11 12 -25 15 -14 4 -25 11 -25 17 0 6 5 7 10 4 6 -3 10 1 10 9 0 9 -5 15 -11 14 -6 -2 -13 2 -15 7 -6 16 40 12 60 -4z m166 -6 c0 -9 -11 -26 -25 -39 -18 -17 -25 -34 -25 -62 -1 -40 -21 -128 -32 -139 -3 -4 -2 11 3 32 5 21 9 59 9 86 0 44 -1 47 -27 48 -28 1 -28 1 3 8 42 10 54 19 54 39 0 14 2 15 9 3 8 -12 11 -9 16 12 8 30 15 35 15 12z m-150 -175 c5 0 11 12 13 28 2 15 4 6 4 -20 0 -27 -4 -48 -9 -48 -4 0 -8 7 -8 15 0 9 -10 15 -22 16 -13 0 -17 3 -10 6 7 3 13 26 14 56 l2 52 3 -52 c2 -29 8 -53 13 -53z m60 40 c0 -27 -4 -50 -10 -50 -11 0 -13 42 -4 78 10 35 14 26 14 -28z m-59 -102 c8 -15 8 -18 0 -14 -6 4 -16 16 -22 28 -8 15 -8 18 0 14 6 -4 16 -16 22 -28z m29 -39 c0 -5 5 -7 10 -4 6 3 10 1 10 -4 0 -17 -27 -13 -34 4 -3 8 -1 15 4 15 6 0 10 -5 10 -11z m-3446 -105 c9 -3 16 -10 16 -15 0 -13 -23 -10 -44 6 -16 12 -17 15 -4 15 9 0 23 -3 32 -6z m-188 -113 c-20 -38 -57 -61 -49 -31 3 11 13 22 24 25 10 3 21 15 24 26 4 11 9 18 12 16 2 -3 -3 -19 -11 -36z"></path>
			<path id="pvM92eqpK"
				d="M1631 2426 c-15 -18 -11 -68 6 -73 13 -5 53 31 53 46 0 12 -28 41 -39 41 -5 0 -14 -6 -20 -14z"></path>
			<path id="pC8jOJRbR"
				d="M1620 2315 c0 -31 26 -43 46 -23 20 20 7 48 -22 48 -19 0 -24 -5 -24 -25z"></path>
			<path id="pdmqadIjD"
				d="M3730 2315 c0 -24 5 -35 15 -35 21 0 35 32 24 53 -17 30 -39 20 -39 -18z"></path>
			<path id="plVAkAtDv"
				d="M4280 2408 c-37 -61 -16 -128 40 -128 50 0 77 68 49 123 -25 48 -62 49 -89 5z"></path>
			<path id="p18VowdwsV"
				d="M8130 2314 c0 -28 4 -35 16 -32 40 8 44 68 4 68 -16 0 -20 -6 -20 -36z"></path>
			<path id="p10YbzSbx8"
				d="M462 2263 l-59 -58 56 49 c31 27 60 53 66 58 5 4 6 8 2 8 -3 0 -33 -26 -65 -57z"></path>
			<path id="pXEitfp8k"
				d="M484 2228 l-19 -21 28 18 c28 18 33 25 19 25 -5 0 -17 -10 -28 -22z"></path>
			<path id="p15QIkjdzP"
				d="M1890 2130 c0 -17 7 -20 53 -22 50 -1 50 -2 10 -5 -38 -4 -43 -7 -43 -29 0 -23 3 -24 55 -24 54 0 55 0 55 29 0 16 -6 32 -12 34 -8 3 -6 6 5 6 13 1 17 -7 17 -39 l0 -40 -60 0 c-33 0 -60 -4 -60 -10 0 -6 32 -10 75 -10 41 0 75 4 75 9 0 5 7 12 16 15 14 5 15 4 4 -9 -11 -13 -4 -15 55 -15 65 0 67 1 61 23 -3 12 -6 41 -6 65 0 42 -14 58 -23 25 -4 -17 -5 -17 -6 0 -1 10 -9 17 -21 17 -18 0 -20 -7 -20 -54 l0 -55 38 -4 37 -4 -42 -1 -43 -2 0 60 0 60 -110 0 c-103 0 -110 -1 -110 -20z"></path>
			<path id="p3ZwMgA8Q"
				d="M4640 2140 c0 -5 11 -10 25 -10 14 0 25 5 25 10 0 6 -11 10 -25 10 -14 0 -25 -4 -25 -10z"></path>
			<path id="pELm2rvEv"
				d="M4700 2125 c0 -24 3 -25 58 -26 31 -1 72 -3 90 -5 21 -1 32 2 32 11 0 7 3 20 6 29 5 14 -6 16 -90 16 -96 0 -96 0 -96 -25z m133 -12 c-13 -2 -33 -2 -45 0 -13 2 -3 4 22 4 25 0 35 -2 23 -4z"></path>
			<path id="ptM5Vxag2"
				d="M6651 2133 c-1 -20 4 -23 39 -23 30 0 40 4 40 16 0 12 -7 15 -25 12 -13 -3 -26 0 -29 6 -2 6 -5 2 -6 -9 l-1 -20 -9 20 c-8 19 -9 19 -9 -2z"></path>
			<path id="pRUS36xbK"
				d="M7733 2125 c2 -26 6 -30 31 -30 24 0 30 5 33 28 3 23 0 27 -22 27 -19 0 -25 -5 -26 -22 -1 -22 -1 -22 -9 2 -9 24 -9 24 -7 -5z"></path>
			<path id="pzgyYDFf8"
				d="M7951 2088 c1 -24 3 -35 6 -25 2 9 11 17 18 17 8 0 19 -8 25 -17 9 -15 10 -14 6 7 -3 14 -3 19 0 13 4 -10 12 -9 35 2 l29 16 0 -51 c0 -36 -4 -52 -15 -56 -22 -9 -18 -33 5 -31 18 1 20 8 20 78 l0 76 -37 7 c-21 3 -50 6 -65 6 -26 0 -28 -2 -27 -42z"></path>
			<path id="pO757YufF"
				d="M4640 2105 c0 -9 9 -15 25 -15 16 0 25 6 25 15 0 9 -9 15 -25 15 -16 0 -25 -6 -25 -15z"></path>
			<path id="pk8o6S7A2"
				d="M4823 2073 c-19 -7 -16 -60 5 -72 9 -6 11 -11 5 -11 -16 0 -18 -60 -2 -60 5 0 8 4 5 9 -3 5 1 11 9 15 22 8 20 56 -2 57 -15 0 -15 2 2 9 l20 9 -20 1 c-11 1 -14 4 -7 7 6 2 12 13 12 24 0 19 -5 21 -27 12z"></path>
			<path id="p1GNDngD7K"
				d="M5236 2064 c-9 -22 -8 -24 12 -25 14 0 14 -2 -3 -8 l-20 -8 20 -5 c16 -5 17 -6 3 -7 -20 -1 -26 -45 -8 -56 6 -4 8 -11 5 -16 -4 -5 -2 -9 4 -9 14 0 19 22 10 48 -5 12 -5 22 0 22 15 0 23 51 10 66 -15 18 -25 18 -33 -2z"></path>
			<path id="pQrb7Tlxu"
				d="M8033 2073 c-18 -7 -16 -23 2 -23 8 0 15 7 15 15 0 8 -1 15 -2 14 -2 0 -9 -3 -15 -6z"></path>
			<path id="p19dzEkOKv"
				d="M4760 2051 c0 -5 9 -11 20 -14 13 -3 20 0 20 9 0 8 -9 14 -20 14 -11 0 -20 -4 -20 -9z"></path>
			<path id="p1Eo5L1byF"
				d="M5290 2045 c0 -17 2 -18 24 -9 23 9 20 24 -4 24 -11 0 -20 -7 -20 -15z"></path>
			<path id="pm4uvySUZ"
				d="M5300 1999 c0 -6 -4 -8 -9 -5 -5 3 -12 -17 -16 -45 -4 -30 -10 -46 -15 -39 -6 9 -9 9 -15 0 -4 -6 -5 -12 -4 -13 2 -1 13 -7 24 -13 29 -15 55 -6 55 19 -1 22 -1 22 -15 3 -14 -18 -15 -16 -14 30 0 27 3 43 6 37 3 -10 8 -10 19 1 18 18 18 22 -1 30 -8 3 -15 1 -15 -5z"></path>
			<path id="pE0isp6u0"
				d="M7528 1922 c-14 -3 -18 -13 -17 -45 l1 -42 20 43 c21 48 21 50 -4 44z"></path>
			<path id="pBfziLuU0"
				d="M4820 1905 c0 -8 7 -15 15 -15 9 0 12 6 9 15 -4 8 -10 15 -15 15 -5 0 -9 -7 -9 -15z"></path>
			<path id="pdFe8QjeU"
				d="M7480 1865 c0 -19 5 -35 10 -35 6 0 10 16 10 35 0 19 -4 35 -10 35 -5 0 -10 -16 -10 -35z"></path>
			<path id="p1GuD4qOSo"
				d="M5063 1680 c0 -25 2 -35 4 -22 2 12 2 32 0 45 -2 12 -4 2 -4 -23z"></path>
			<path id="puUFFRP4j"
				d="M7870 1676 c0 -26 4 -36 16 -36 11 0 14 8 12 32 -4 46 -28 49 -28 4z"></path>
			<path id="p6X9nutLL"
				d="M4226 1605 c-40 -40 -3 -137 87 -227 37 -37 72 -68 77 -68 23 0 1 159 -30 220 -36 70 -101 107 -134 75z"></path>
			<path id="p17tpdlLBa"
				d="M3940 1204 c0 -40 30 -94 80 -146 72 -74 91 -58 46 38 -24 52 -94 134 -114 134 -7 0 -12 -12 -12 -26z"></path>
			<path id="pDt7QO19Z"
				d="M4255 1210 c-12 -19 19 -92 58 -136 58 -66 125 -97 112 -51 -32 109 -143 231 -170 187z"></path>
			<path id="p1GzyJ34tr"
				d="M3635 966 c-13 -31 1 -278 19 -319 19 -46 42 -48 48 -6 11 71 -51 366 -67 325z"></path>
			<path id="p14jsvZINs"
				d="M3803 830 c3 -172 14 -224 46 -218 11 2 17 17 19 49 3 47 -26 209 -52 289 -14 43 -15 37 -13 -120z"></path>
			<path id="p4inrQTGQ"
				d="M2280 1209 c0 -31 17 -59 73 -116 52 -54 80 -65 91 -38 10 26 -10 58 -72 118 -64 60 -92 71 -92 36z"></path>
			<path id="p17WqDl5aE"
				d="M2474 996 c-4 -10 -4 -64 -2 -120 6 -107 27 -176 62 -206 16 -13 20 -12 32 5 34 47 -6 222 -75 325 -8 12 -11 12 -17 -4z"></path>
			<path id="pCso8qSLY"
				d="M2670 1143 c1 -53 70 -147 92 -125 22 22 -24 106 -73 133 -15 8 -19 6 -19 -8z"></path>
			<path id="pcYN0qMiR"
				d="M4582 1123 c15 -55 35 -91 59 -104 28 -15 42 1 33 36 -7 26 -77 105 -94 105 -5 0 -4 -17 2 -37z"></path>
			<path id="px8Q1n9pG"
				d="M790 1161 c-11 -22 -13 -122 -3 -159 5 -21 10 -23 36 -18 64 13 81 53 52 123 -29 69 -64 91 -85 54z"></path>
			<path id="pLTMey2ll"
				d="M1040 1095 c0 -43 50 -125 77 -125 35 0 3 79 -50 120 -23 18 -27 19 -27 5z"></path>
			<path id="pc2ecChsd" d="M823 2453 c9 -2 25 -2 35 0 9 3 1 5 -18 5 -19 0 -27 -2 -17 -5z"></path>
			<path id="p6PWE1SX6"
				d="M1351 2436 c10 -9 69 -36 69 -32 0 6 -55 36 -66 36 -4 0 -5 -2 -3 -4z"></path>
			<path id="pvFx15Enm"
				d="M155 1458 l-40 -43 43 40 c39 36 47 45 39 45 -2 0 -21 -19 -42 -42z"></path>
			<path id="pkU6h8yZ2"
				d="M8 1053 c-2 -10 -1 -31 3 -48 6 -26 7 -23 8 18 1 48 -3 61 -11 30z"></path>
			<path id="p1AwggsGBe"
				d="M0 473 l0 -473 458 1 c271 1 437 5 409 9 -207 35 -413 147 -581 314 -98 98 -157 187 -206 311 -36 91 -73 239 -66 262 3 10 1 25 -4 33 -6 10 -10 -151 -10 -457z"></path>
			<path id="paCYeRJ6I"
				d="M93 855 c3 -11 11 -44 17 -73 7 -29 14 -51 16 -49 6 6 -23 127 -32 136 -3 3 -4 -3 -1 -14z"></path>
		</g>
	</g>
</svg>